<svg width="138" height="120" viewBox="0 0 138 120" fill="none" xmlns="http://www.w3.org/2000/svg">
<mask id="mask0_689_4505" style="mask-type:luminance" maskUnits="userSpaceOnUse" x="79" y="30" width="58" height="59">
<path fill-rule="evenodd" clip-rule="evenodd" d="M79.3633 30.4849H136.732V88.2562H79.3633V30.4849Z" fill="white"/>
</mask>
<g mask="url(#mask0_689_4505)">
<path fill-rule="evenodd" clip-rule="evenodd" d="M129.03 67.2373C130.748 78.7125 119.651 84.3471 111.852 80.612C103.787 91.0517 96.7395 90.188 90.3786 81.7164C80.1499 92.8728 76.3314 69.3626 81.9758 62.393C81.9809 62.3782 81.9906 62.3687 82.0052 62.3538C83.8064 60.1596 86.5648 59.6444 90.3786 62.4521C118.438 42.3677 116.971 37.1798 124.039 32.3895C126.027 31.0397 127.793 30.4212 129.183 30.49C133.433 30.6815 134.208 37.2584 127.313 49.077C137.31 49.6905 141.482 59.0164 129.03 67.2373" fill="#DBDEDD"/>
</g>
<path fill-rule="evenodd" clip-rule="evenodd" d="M128 65.436C125.737 66.8692 122.62 67.9689 119.175 69.1614C124.53 69.3626 127.73 68.2191 127.73 68.2191H127.734C127.833 71.915 126.434 74.4132 125.133 75.9152C123.042 78.3445 119.813 79.7925 116.495 79.7925C114.983 79.7925 113.496 79.4931 112.151 78.9093C112.22 78.806 112.288 78.7081 112.362 78.6098C112.563 78.3154 112.725 77.9913 112.907 77.682C113.555 76.3963 113.903 74.9631 113.933 73.5198C114.006 70.6192 112.617 67.7528 110.325 65.932C109.731 65.4951 109.083 65.1321 108.396 64.8668C107.7 64.6163 106.978 64.44 106.241 64.386C104.774 64.2729 103.272 64.5673 101.976 65.2692C101.333 65.6227 100.73 66.0495 100.214 66.5748C99.6891 67.0806 99.2282 67.6937 98.9041 68.3612C98.2514 69.7063 98.1089 71.2719 98.4966 72.6953C98.8744 74.1235 99.7579 75.3899 101.005 76.1999C102.251 77.0048 103.852 77.1665 105.221 76.7002C105.908 76.4744 106.531 76.0722 107.037 75.5766C107.552 75.0806 107.945 74.4428 108.111 73.7555C108.288 73.0684 108.274 72.3421 108.063 71.6794C107.861 71.0169 107.454 70.4326 106.948 69.9909C107.886 70.9724 108.18 72.4404 107.743 73.6424C107.532 74.2511 107.159 74.7764 106.674 75.1789C106.192 75.5911 105.623 75.9004 105.019 76.0526C103.817 76.3764 102.487 76.1607 101.505 75.4439C100.528 74.7322 99.7924 73.6231 99.5419 72.4353C99.2771 71.2425 99.4439 69.9764 99.9885 68.9061C100.264 68.3663 100.637 67.895 101.088 67.4827C101.53 67.0509 102.045 66.7122 102.585 66.4324C103.675 65.8732 104.917 65.6278 106.129 65.7307C106.737 65.7797 107.331 65.9367 107.906 66.143C108.47 66.3689 109 66.6731 109.491 67.0363C111.425 68.5479 112.657 71.0119 112.622 73.51C112.632 74.7616 112.362 76.0135 111.822 77.1469C111.611 77.5886 111.361 78.0061 111.071 78.3988V78.4035L110.585 79.0319C106.86 83.8518 103.272 86.2911 99.92 86.2911C96.8473 86.2911 93.7357 84.2249 90.6728 80.146L89.9614 79.1987L89.1662 80.0721C87.5808 81.8001 86.0888 82.713 84.8518 82.713C81.7253 82.713 79.8552 76.9018 79.8552 71.2867C79.8552 68.3025 80.361 65.5785 81.2837 63.6105C81.4947 63.154 81.7253 62.7465 81.9758 62.393C81.9806 62.3782 81.9904 62.3687 82.0049 62.3538C83.8064 60.1599 86.5648 59.6444 90.3784 62.4521C118.438 42.3677 116.971 37.1798 124.039 32.3895C126.027 31.0397 127.793 30.4212 129.182 30.49L129.158 30.5538C129.722 30.6865 130.149 31.0151 130.449 31.5353C131.622 33.582 131.062 38.873 125.973 47.5999C125.973 47.5999 123.695 51.4725 117.619 53.799C122.743 53.2491 126.331 51.4087 128.426 49.2735L128.431 49.2688C131.911 49.887 134.395 51.7227 135.077 54.2701C136.005 57.7256 133.354 61.9024 128 65.436" fill="#FEFEFE"/>
<mask id="mask1_689_4505" style="mask-type:luminance" maskUnits="userSpaceOnUse" x="0" y="30" width="58" height="59">
<path fill-rule="evenodd" clip-rule="evenodd" d="M0 30.4849H57.3689V88.2562H0V30.4849Z" fill="white"/>
</mask>
<g mask="url(#mask1_689_4505)">
<path fill-rule="evenodd" clip-rule="evenodd" d="M7.70171 67.2373C5.98386 78.7125 17.0816 84.3471 24.8804 80.612C32.9446 91.0517 39.9926 90.188 46.3535 81.7164C56.5822 92.8728 60.401 69.3626 54.7563 62.393C54.7513 62.3782 54.7415 62.3687 54.7269 62.3538C52.9257 60.1596 50.1673 59.6444 46.3535 62.4521C18.2937 42.3677 19.7613 37.1798 12.6932 32.3895C10.7056 31.0397 8.93874 30.4212 7.54945 30.49C3.29906 30.6815 2.52384 37.2584 9.41955 49.077C-0.578251 49.6905 -4.75028 59.0164 7.70171 67.2373" fill="#DBDEDD"/>
</g>
<path fill-rule="evenodd" clip-rule="evenodd" d="M8.73233 65.436C10.9951 66.8692 14.1117 67.9689 17.5572 69.1614C12.2024 69.3626 9.00241 68.2191 9.00241 68.2191H8.99766C8.89913 71.915 10.2979 74.4132 11.5988 75.9152C13.6897 78.3445 16.9194 79.7925 20.2372 79.7925C21.7488 79.7925 23.2361 79.4931 24.5808 78.9093C24.5123 78.806 24.4437 78.7081 24.3698 78.6098C24.1686 78.3154 24.0068 77.9913 23.8252 77.682C23.1773 76.3963 22.8286 74.9631 22.7992 73.5198C22.7256 70.6192 24.1146 67.7528 26.4067 65.932C27.0006 65.4951 27.6485 65.1321 28.3359 64.8668C29.0324 64.6163 29.7542 64.44 30.4906 64.386C31.9579 64.2729 33.4597 64.5673 34.7555 65.2692C35.3987 65.6227 36.0023 66.0495 36.5176 66.5748C37.0429 67.0806 37.5041 67.6937 37.8279 68.3612C38.4809 69.7063 38.6233 71.2719 38.2354 72.6953C37.8576 74.1235 36.974 75.3899 35.7272 76.1999C34.4807 77.0048 32.8807 77.1665 31.5113 76.7002C30.8242 76.4744 30.2009 76.0722 29.6952 75.5766C29.1799 75.0806 28.7873 74.4428 28.6205 73.7555C28.4436 73.0684 28.4584 72.3421 28.6695 71.6794C28.8707 71.0169 29.2782 70.4326 29.7836 69.9909C28.8463 70.9724 28.5516 72.4404 28.9885 73.6424C29.1995 74.2511 29.5726 74.7764 30.0582 75.1789C30.5396 75.5911 31.1088 75.9004 31.7125 76.0526C32.9148 76.3764 34.245 76.1607 35.2268 75.4439C36.2036 74.7322 36.9396 73.6231 37.1901 72.4353C37.4549 71.2425 37.2884 69.9764 36.7434 68.9061C36.4683 68.3663 36.0952 67.895 35.6441 67.4827C35.2025 67.0509 34.6867 66.7122 34.1471 66.4324C33.0573 65.8732 31.8155 65.6278 30.6031 65.7307C29.9946 65.7797 29.4008 65.9367 28.8265 66.143C28.2623 66.3689 27.7322 66.6731 27.241 67.0363C25.3074 68.5479 24.0754 71.0119 24.1098 73.51C24.0997 74.7616 24.3698 76.0135 24.9097 77.1469C25.121 77.5886 25.3712 78.0061 25.6606 78.3988V78.4035L26.1467 79.0319C29.8721 83.8518 33.4597 86.2911 36.812 86.2911C39.8847 86.2911 42.9963 84.2249 46.0592 80.146L46.7706 79.1987L47.566 80.0721C49.1512 81.8001 50.6432 82.713 51.8802 82.713C55.0067 82.713 56.8768 76.9018 56.8768 71.2867C56.8768 68.3025 56.3713 65.5785 55.4483 63.6105C55.2373 63.154 55.0067 62.7465 54.7562 62.393C54.7514 62.3782 54.7416 62.3687 54.7271 62.3538C52.9255 60.1599 50.1671 59.6444 46.3536 62.4521C18.2935 42.3677 19.7612 37.1798 12.6933 32.3895C10.7054 31.0397 8.9386 30.4212 7.5496 30.49L7.57424 30.5538C7.00974 30.6865 6.58265 31.0151 6.28318 31.5353C5.11025 33.582 5.67001 38.873 10.7594 47.5999C10.7594 47.5999 13.037 51.4725 19.1133 53.799C13.9891 53.2491 10.4012 51.4087 8.30554 49.2735L8.30049 49.2688C4.82058 49.887 2.33701 51.7227 1.65468 54.2701C0.727202 57.7256 3.37757 61.9024 8.73233 65.436" fill="#FEFEFE"/>
<path opacity="0.08" fill-rule="evenodd" clip-rule="evenodd" d="M102.701 115.344C102.701 117.698 87.9195 119.61 69.684 119.61C51.4482 119.61 36.6648 117.698 36.6648 115.344C36.6648 112.987 51.4482 111.077 69.684 111.077C87.9195 111.077 102.701 112.987 102.701 115.344" fill="#313131"/>
<path fill-rule="evenodd" clip-rule="evenodd" d="M105.032 65.4648C104.422 65.1988 104.36 63.9251 104.762 63.0794C105.046 62.4834 105.701 61.8012 106.196 61.9537C106.678 62.1025 106.785 62.9777 106.821 63.2753C106.86 63.6008 106.929 64.1657 106.583 64.6938C106.242 65.216 105.514 65.6745 105.032 65.4648" fill="#69D7C7"/>
<mask id="mask2_689_4505" style="mask-type:luminance" maskUnits="userSpaceOnUse" x="107" y="62" width="5" height="5">
<path fill-rule="evenodd" clip-rule="evenodd" d="M107.451 65.5186L109.427 66.7062L111.334 63.5334L109.357 62.3457L107.451 65.5186Z" fill="white"/>
</mask>
<g mask="url(#mask2_689_4505)">
<path fill-rule="evenodd" clip-rule="evenodd" d="M108.319 66.0367C107.784 65.6396 108.013 64.3851 108.596 63.6521C109.006 63.1358 109.799 62.6196 110.246 62.8799C110.683 63.1341 110.588 64.0106 110.556 64.3087C110.521 64.6347 110.46 65.2005 110.004 65.6367C109.553 66.0681 108.74 66.35 108.319 66.0367" fill="#69D7C7"/>
</g>
<path fill-rule="evenodd" clip-rule="evenodd" d="M110.53 67.4611C110.378 66.8128 111.363 66.0023 112.281 65.8189C112.928 65.6899 113.867 65.8076 114.04 66.2952C114.209 66.7711 113.571 67.3794 113.354 67.5863C113.117 67.8125 112.705 68.2051 112.075 68.2439C111.452 68.2822 110.65 67.9724 110.53 67.4611" fill="#69D7C7"/>
<path fill-rule="evenodd" clip-rule="evenodd" d="M111.812 70.4868C111.907 69.8279 113.119 69.4325 114.041 69.5971C114.691 69.7131 115.522 70.1652 115.505 70.6825C115.489 71.1873 114.673 71.5208 114.395 71.6342C114.092 71.7581 113.565 71.9733 112.965 71.7795C112.371 71.5878 111.736 71.0064 111.812 70.4868" fill="#69D7C7"/>
<path fill-rule="evenodd" clip-rule="evenodd" d="M87.8364 85.0297C88.1145 85.5203 89.1609 85.8599 97.726 83.4505C105.638 81.2248 107.637 80.1215 109.391 78.6804C111.894 76.6241 112.678 74.8822 112.961 74.1556C113.183 73.5858 114.378 70.3979 112.778 67.3753C112.55 66.9447 111.945 65.8326 110.672 64.9748C108.325 63.3918 105.67 63.9983 105.061 64.1576C104.275 64.3634 103.69 64.6518 103.371 64.8451C100.256 66.7267 98.0454 70.7674 94.9152 74.6657C93.7916 76.065 91.7503 78.4413 89.0899 82.235C88.0313 83.7446 87.5472 84.5195 87.8364 85.0297" fill="#30BDA9"/>
<path fill-rule="evenodd" clip-rule="evenodd" d="M34.8465 65.3729C35.4657 65.1284 35.5715 63.8575 35.1992 62.9983C34.9369 62.3929 34.3056 61.6882 33.8061 61.8233C33.3186 61.9552 33.1818 62.8262 33.1354 63.1223C33.0845 63.4462 32.9962 64.0084 33.3231 64.5483C33.6462 65.0821 34.358 65.5657 34.8465 65.3729" fill="#69D7C7"/>
<mask id="mask3_689_4505" style="mask-type:luminance" maskUnits="userSpaceOnUse" x="28" y="62" width="5" height="5">
<path fill-rule="evenodd" clip-rule="evenodd" d="M32.4275 65.3418L30.4106 66.4598L28.616 63.2223L30.6329 62.1043L32.4275 65.3418Z" fill="white"/>
</mask>
<g mask="url(#mask3_689_4505)">
<path fill-rule="evenodd" clip-rule="evenodd" d="M31.5421 65.8294C32.0899 65.4511 31.9056 64.1894 31.3485 63.4366C30.956 62.9062 30.1818 62.3626 29.7257 62.6072C29.2806 62.846 29.3445 63.7253 29.3663 64.0243C29.39 64.3513 29.4313 64.9189 29.8717 65.3708C30.3071 65.8177 31.1098 66.1278 31.5421 65.8294" fill="#69D7C7"/>
</g>
<path fill-rule="evenodd" clip-rule="evenodd" d="M29.2825 67.1759C29.4566 66.5333 28.5011 65.689 27.5897 65.4737C26.9475 65.3221 26.0053 65.4071 25.815 65.8883C25.6294 66.358 26.2458 66.9882 26.4555 67.2025C26.6848 67.4369 27.0828 67.8437 27.7109 67.9044C28.3319 67.9644 29.1451 67.6828 29.2825 67.1759" fill="#69D7C7"/>
<path fill-rule="evenodd" clip-rule="evenodd" d="M27.8961 70.1552C27.8238 69.4934 26.626 69.0559 25.6989 69.1882C25.0456 69.2815 24.1994 69.7044 24.1979 70.2219C24.1965 70.727 25.0004 71.0887 25.2739 71.2118C25.5728 71.3462 26.092 71.5796 26.6988 71.407C27.299 71.2361 27.9533 70.6772 27.8961 70.1552" fill="#69D7C7"/>
<path fill-rule="evenodd" clip-rule="evenodd" d="M51.3491 85.5259C51.054 86.0064 49.9964 86.3094 41.5206 83.6025C33.6915 81.102 31.732 79.9296 30.0292 78.4281C27.5993 76.2858 26.8764 74.5176 26.619 73.7816C26.4171 73.2043 25.3342 69.9767 27.039 67.0118C27.2818 66.5894 27.9255 65.4991 29.227 64.6862C31.6285 63.1861 34.2608 63.8849 34.8634 64.0653C35.6419 64.2984 36.2158 64.6071 36.5287 64.8114C39.5761 66.8006 41.644 70.9159 44.6363 74.9211C45.7103 76.3588 47.6675 78.8049 50.1939 82.6891C51.1992 84.2347 51.6559 85.0261 51.3491 85.5259" fill="#30BDA9"/>
<path fill-rule="evenodd" clip-rule="evenodd" d="M84.4177 112.418C83.3538 110.429 79.6034 110.051 77.5187 109.843C77.1308 109.805 76.6893 109.78 76.5409 109.767V93.7523C76.3925 93.6623 76.0482 93.2856 75.4591 93.2374C74.7164 93.1767 74.2048 93.6888 74.1456 93.7534C74.0351 99.6718 73.9113 105.59 73.8008 111.509C73.7947 111.614 73.787 111.714 73.7887 111.806C73.7867 111.91 73.7815 112.014 73.7795 112.118C73.7887 112.143 73.7979 112.168 73.8086 112.193C73.814 112.24 73.8178 112.274 73.8201 112.289C73.861 112.565 73.929 113.026 74.2488 113.447C74.9744 114.404 76.3587 114.318 76.5228 114.306C79.704 114.498 81.798 114.35 82.9589 114.22C83.4952 114.16 84.3528 114.039 84.5894 113.49C84.7654 113.082 84.522 112.612 84.4177 112.418" fill="#30BDA9"/>
<path fill-rule="evenodd" clip-rule="evenodd" d="M65.4871 93.8668C65.4973 96.2949 65.5106 99.7238 65.5193 102.152C65.5273 104.48 65.538 107.894 65.5442 110.222C65.5436 110.227 65.5428 110.232 65.5423 110.237C65.555 110.5 65.574 110.904 65.5943 111.402C65.6251 112.157 65.6322 112.47 65.5371 112.89C65.5371 112.89 65.473 113.173 65.3798 113.405C64.8058 114.831 58.9239 114.448 56.369 114.048C55.9528 113.983 55.1267 113.839 54.8099 113.233C54.6717 112.834 54.672 112.51 54.7384 112.246C55.1502 110.605 58.497 109.714 63.0198 109.843C63.0483 104.508 63.0769 99.1732 63.1056 93.8382C63.5199 93.3639 64.1295 93.1498 64.6789 93.2947C65.1346 93.415 65.3968 93.7419 65.4871 93.8668" fill="#30BDA9"/>
<mask id="mask4_689_4505" style="mask-type:luminance" maskUnits="userSpaceOnUse" x="53" y="93" width="12" height="22">
<path fill-rule="evenodd" clip-rule="evenodd" d="M53.9423 93.25H64.862V114.415H53.9423V93.25Z" fill="white"/>
</mask>
<g mask="url(#mask4_689_4505)">
</g>
<path fill-rule="evenodd" clip-rule="evenodd" d="M98.268 67.8046C99.4609 53.1876 93.07 40.4019 83.8773 33.7451L81.8556 32.4123C78.0764 30.1408 73.9183 28.8638 69.672 28.8638C64.3909 28.8638 59.2778 30.8278 54.8531 34.2282L53.168 35.6175C45.2875 42.6405 40.0835 54.4565 41.0764 67.8046C41.3662 71.6964 43.5756 79.0201 43.5756 79.0201L46.3182 85.1321C49.3383 90.829 57.1829 99.4435 57.1829 99.4435L58.9248 101.021C63.1471 104.647 67.1455 106.747 69.672 106.747C72.648 106.747 77.165 104.507 81.7423 100.482L83.1492 99.184C83.1492 99.184 91.3733 89.7924 94.27 83.2836L96.1529 78.3724C96.1529 78.3724 97.9628 71.5311 98.268 67.8046Z" fill="#69D7C7"/>
<mask id="mask5_689_4505" style="mask-type:luminance" maskUnits="userSpaceOnUse" x="40" y="28" width="59" height="79">
<path fill-rule="evenodd" clip-rule="evenodd" d="M98.268 67.8046C99.4609 53.1876 93.07 40.4019 83.8773 33.7451L81.8556 32.4123C78.0764 30.1408 73.9183 28.8638 69.672 28.8638C64.3909 28.8638 59.2778 30.8278 54.8531 34.2282L53.168 35.6175C45.2875 42.6405 40.0835 54.4565 41.0764 67.8046C41.3662 71.6964 43.5756 79.0201 43.5756 79.0201L46.3182 85.1321C49.3383 90.829 57.1829 99.4435 57.1829 99.4435L58.9248 101.021C63.1471 104.647 67.1455 106.747 69.672 106.747C72.648 106.747 77.165 104.507 81.7423 100.482L83.1492 99.184C83.1492 99.184 91.3733 89.7924 94.27 83.2836L96.1529 78.3724C96.1529 78.3724 97.9628 71.5311 98.268 67.8046Z" fill="white"/>
</mask>
<g mask="url(#mask5_689_4505)">
</g>
<path fill-rule="evenodd" clip-rule="evenodd" d="M80.3013 49.3999C84.0888 49.7679 88.4639 53.2321 89 59.8713V62.0823C88.5029 68.4392 83.7048 76.2758 69.6801 86.1096C55.6635 76.2758 50.8633 68.4392 50.3662 62.0823V59.8713C50.897 53.2321 55.2774 49.7679 59.0609 49.3999C59.6795 49.3385 60.2641 49.3071 60.8079 49.3071C65.1806 49.3071 67.2789 52.6779 69.6801 55.5392C72.082 52.6779 74.1823 49.3071 78.553 49.3071C79.0965 49.3071 79.681 49.3385 80.3013 49.3999Z" fill="white"/>
<path fill-rule="evenodd" clip-rule="evenodd" d="M73.7942 62.6119C73.7942 63.4406 73.1221 64.113 72.2953 64.113C71.467 64.113 70.7916 63.4406 70.7916 62.6119C70.7916 61.7829 71.467 61.1094 72.2953 61.1094C73.1221 61.1094 73.7942 61.7829 73.7942 62.6119" fill="white"/>
<path fill-rule="evenodd" clip-rule="evenodd" d="M69.8317 31.2861C69.2979 30.603 68.4515 29.6761 67.2117 28.8811C64.8641 27.3757 62.767 27.4082 62.789 26.977C62.8098 26.5711 64.6961 25.9775 66.3804 26.5877C68.2376 27.2606 68.9482 29.0707 69.0733 29.4068C69.1424 29.5923 68.7364 28.2677 68.6039 26.7447C68.5752 26.4151 68.3348 23.3173 69.6951 22.6827C70.1801 22.4565 70.8647 22.5451 71.1043 22.8917C71.3862 23.2993 70.9989 23.9865 70.7492 24.5097C70.3151 25.4197 69.853 26.7668 69.7381 28.6796C69.9163 28.2809 70.2917 27.5861 71.0259 26.9885C71.1935 26.8521 72.4766 25.8407 74.2659 25.9903C75.357 26.0815 76.6091 26.6023 76.5868 27.045C76.5699 27.3766 75.8419 27.5929 75.2504 27.7686C73.7877 28.2032 73.0802 27.9585 72.3307 28.1615C71.5993 28.3594 70.6391 29.0347 69.8317 31.2861" fill="#69D7C7"/>
<path fill-rule="evenodd" clip-rule="evenodd" d="M62.3906 38.3254C62.0757 35.3598 61.2315 31.4838 59.0442 27.4859C58.2913 26.1098 57.4814 24.9056 56.6795 23.8624C56.9324 23.5717 54.5758 24.915 55.0356 24.7891C56.3347 26.3184 58.2017 28.9056 59.4295 32.5474C60.2051 34.8484 60.5129 36.9394 60.6175 38.6063L62.3906 38.3254Z" fill="#69D7C7"/>
<path fill-rule="evenodd" clip-rule="evenodd" d="M52.5824 15.4997C53.4673 14.9584 54.9882 14.9948 56.1941 16.3523L56.5569 16.8337C57.4916 18.2993 57.7326 20.7926 56.2926 25.2344C51.6276 25.3931 49.2969 24.4744 48.1457 23.172L47.783 22.6906C46.8093 21.1581 47.1946 19.6852 47.958 18.9844C48.0826 18.8695 48.2047 18.7668 48.3231 18.6776C49.2751 17.9602 50.285 18.3498 51.2772 18.5788C51.3307 17.5618 51.2349 16.4833 52.1865 15.7663C52.3048 15.6771 52.4372 15.588 52.5824 15.4997Z" fill="#69D7C7"/>
<path fill-rule="evenodd" clip-rule="evenodd" d="M87.0925 14.6787C86.172 14.2005 84.6576 14.3429 83.5494 15.7811L83.2211 16.2865C82.391 17.8136 82.3245 20.3174 84.0707 24.6475C88.7349 24.4803 90.9956 23.4015 92.053 22.022L92.3813 21.5166C93.2455 19.92 92.7585 18.4778 91.9482 17.832C91.8159 17.7261 91.6869 17.6321 91.5626 17.5514C90.5629 16.9022 89.5828 17.3613 88.6091 17.659C88.4848 16.6483 88.5051 15.5659 87.5059 14.917C87.3817 14.8363 87.2434 14.7567 87.0925 14.6787Z" fill="#69D7C7"/>
<path fill-rule="evenodd" clip-rule="evenodd" d="M84.177 22.4913C83.4499 23.5878 82.7258 24.8457 82.0709 26.2709C79.9775 30.8258 79.4948 35.1204 79.4695 38.1829L81.2992 38.343C81.2213 36.5647 81.3145 34.1249 82.0397 31.347C83.0103 27.6283 84.6924 24.9173 85.8817 23.3011" fill="#69D7C7"/>
<mask id="mask6_689_4505" style="mask-type:luminance" maskUnits="userSpaceOnUse" x="29" y="3" width="46" height="30">
<path fill-rule="evenodd" clip-rule="evenodd" d="M29.9963 6.03223L72.2424 3.07809L74.0608 29.0814L31.8147 32.0356L29.9963 6.03223Z" fill="white"/>
</mask>
<g mask="url(#mask6_689_4505)">
<path fill-rule="evenodd" clip-rule="evenodd" d="M63.4328 16.7106C62.9524 17.1402 62.4449 17.5651 61.9047 17.9993C61.5042 18.3228 61.0835 18.6408 60.6502 18.9733C60.2991 19.2329 59.9345 19.4934 59.5572 19.7611C58.2456 20.6855 56.8063 21.612 55.2184 22.522C49.5252 25.7938 43.6732 27.848 39.17 28.1629C36.1431 28.3745 34.6396 27.7074 34.266 27.0688C34.105 26.7848 34.0563 26.372 34.1348 25.8628C34.5708 22.9787 39.0102 16.8541 48.7438 11.2585C54.4433 7.98656 60.2886 5.92626 64.7915 5.61138C67.8252 5.39924 69.3292 6.07259 69.6962 6.71171C69.7187 6.75047 69.735 6.78966 69.751 6.82887C70.2659 8.04178 69.0427 11.0007 65.685 14.5459C65.2479 15.0125 64.7703 15.4822 64.2531 15.9617C63.9889 16.2152 63.7176 16.4626 63.4328 16.7106M72.4972 7.21402C72.4145 6.797 72.273 6.40392 72.0662 6.04284C69.5369 1.65379 58.5228 3.24314 47.4598 9.60282C38.081 14.9918 31.6802 22.0665 31.4791 26.7737C31.4446 27.6218 31.6062 28.3963 31.9956 29.0672C34.5185 33.4633 45.5321 31.8674 56.5955 25.5143C58.2547 24.5589 59.8156 23.5566 61.2676 22.5218C61.6515 22.2537 62.0217 21.9792 62.3854 21.7055C62.7808 21.4091 63.1627 21.107 63.5376 20.8054C64.0975 20.3636 64.6366 19.9097 65.1488 19.4577C65.4849 19.1724 65.807 18.8811 66.1152 18.5842C66.6387 18.1046 67.1284 17.6204 67.5911 17.1316C71.1328 13.433 73.0152 9.8234 72.4972 7.21402" fill="#DEA46A"/>
</g>
<path fill-rule="evenodd" clip-rule="evenodd" d="M65.6849 14.5457C65.2477 15.0123 64.7702 15.4824 64.253 15.9615C63.989 16.215 63.7177 16.4624 63.4326 16.7104C62.9526 17.1404 62.4451 17.5649 61.9049 17.9991C61.5044 18.3226 61.0836 18.6406 60.65 18.9731C60.2993 19.2327 59.9347 19.4932 59.557 19.7609C58.2455 20.6854 56.8061 21.6118 55.2182 22.5218C49.5251 25.7936 43.6734 27.8478 39.1698 28.1627C36.1433 28.3743 34.6398 27.7072 34.2662 27.0686C34.1052 26.7846 34.0562 26.3719 34.1346 25.8629C33.2577 23.789 37.4308 16.6354 48.6675 10.1694C54.3673 6.89747 60.2123 4.83719 64.7155 4.52229C67.7489 4.31018 69.2534 4.99043 69.6199 5.62264C69.7814 5.9135 69.8296 6.31971 69.7512 6.82899C70.2657 8.0416 69.0426 11.0005 65.6849 14.5457ZM72.0664 6.04263C69.537 1.65359 58.523 3.24293 47.4597 9.60263C38.0809 14.992 31.6804 22.0666 31.479 26.7736C31.5564 27.2045 31.7054 27.6103 31.9196 27.9781C34.4425 32.3739 45.4563 30.7849 56.52 24.4318C58.1788 23.4764 59.7397 22.4675 61.1913 21.4328C61.5755 21.1642 61.9457 20.8898 62.3098 20.623C62.7049 20.32 63.0868 20.0245 63.4616 19.7163C64.0215 19.2745 64.5603 18.8203 65.0733 18.3749C65.4086 18.083 65.7307 17.792 66.0389 17.4951C66.5627 17.0152 67.0525 16.5314 67.5151 16.0425C70.5872 12.833 72.409 9.69799 72.4971 7.21416C72.4144 6.79681 72.2728 6.40406 72.0664 6.04263Z" fill="#EFBC44"/>
<path fill-rule="evenodd" clip-rule="evenodd" d="M65.149 19.4577C64.6365 19.9098 64.0976 20.364 63.5378 20.8054C63.0544 19.5569 62.4601 18.6454 61.9049 17.9993C62.4451 17.5652 62.9526 17.1403 63.4329 16.7106C64.0247 17.4012 64.6316 18.2989 65.149 19.4577" fill="#F7DB90"/>
<path fill-rule="evenodd" clip-rule="evenodd" d="M62.3855 21.7055C62.0218 21.9792 61.6516 22.2537 61.2673 22.5219C60.7518 21.39 60.0948 20.4422 59.557 19.7615C59.9346 19.4934 60.2992 19.2329 60.65 18.9733C61.2088 19.6661 61.8512 20.5944 62.3855 21.7055" fill="#F7DB90"/>
<path fill-rule="evenodd" clip-rule="evenodd" d="M67.5911 17.1318C67.1285 17.6207 66.6387 18.1045 66.1152 18.5844C65.5681 17.582 64.8948 16.6893 64.2528 15.962C64.77 15.4825 65.2476 15.0127 65.6847 14.5458C66.3266 15.2728 67.005 16.1388 67.5911 17.1318" fill="#F7DB90"/>
<path fill-rule="evenodd" clip-rule="evenodd" d="M40.5825 7.65925L37.971 9.53705L36.7813 12.5244L35.1564 10.2641L34.9783 10.0184L34.915 9.93092L34.9038 9.91286L34.5966 9.78921L34.1228 9.60317L34.0236 9.56581L31.9165 8.72308L34.5291 6.85181L35.7177 3.85829L36.9111 5.52161L37.4491 6.27109L37.5952 6.46947L37.694 6.50686L38.139 6.68632L38.4231 6.80199L39.0436 7.04818L40.5825 7.65925Z" fill="#F7DB90"/>
<path fill-rule="evenodd" clip-rule="evenodd" d="M75.975 17.1549L78.0995 17.9791L76.2591 19.3233L75.435 21.4478L74.0911 19.6076L71.9666 18.7835L73.8067 17.4391L74.631 15.3148L75.975 17.1549Z" fill="#F7DB90"/>
<path fill-rule="evenodd" clip-rule="evenodd" d="M120.635 109.112L117.899 110.803L116.504 113.7L115.041 111.332L114.88 111.074L114.823 110.983L114.813 110.964L114.515 110.819L114.056 110.601L113.959 110.556L111.916 109.569L114.653 107.884L116.047 104.981L117.122 106.723L117.606 107.509L117.738 107.717L117.834 107.761L118.265 107.971L118.541 108.106L119.143 108.395L120.635 109.112Z" fill="#F7DB90"/>
<path fill-rule="evenodd" clip-rule="evenodd" d="M126.491 96.0212L128.553 96.9915L126.623 98.2041L125.653 100.266L124.44 98.3365L122.378 97.3662L124.308 96.1534L125.278 94.0918L126.491 96.0212Z" fill="#F7DB90"/>
<path fill-rule="evenodd" clip-rule="evenodd" d="M64.0115 69.3942C63.8621 69.3942 63.7117 69.3544 63.5741 69.2706C63.1787 69.0289 63.053 68.512 63.2948 68.1166C63.3872 67.964 65.6017 64.3903 68.9821 64.2485C71.0848 64.1786 73.0813 65.3939 74.9262 67.9168C75.2012 68.2918 75.1196 68.8172 74.7446 69.0912C74.3696 69.3663 73.842 69.2846 73.5691 68.9096C72.0777 66.8713 70.5551 65.8709 69.0594 65.929C66.5795 66.0289 64.7496 68.9633 64.7303 68.9923C64.5713 69.2513 64.2951 69.3942 64.0115 69.3942Z" fill="#313131"/>
<path d="M64.0115 69.3942C63.8621 69.3942 63.7117 69.3544 63.5741 69.2706C63.1787 69.0289 63.053 68.512 63.2948 68.1166C63.3872 67.964 65.6017 64.3903 68.9821 64.2485C71.0848 64.1786 73.0813 65.3939 74.9262 67.9168C75.2012 68.2918 75.1196 68.8172 74.7446 69.0912C74.3696 69.3663 73.842 69.2846 73.5691 68.9096C72.0777 66.8713 70.5551 65.8709 69.0594 65.929C66.5795 66.0289 64.7496 68.9633 64.7303 68.9923C64.5713 69.2513 64.2951 69.3942 64.0115 69.3942" stroke="white"/>
<mask id="mask7_689_4505" style="mask-type:luminance" maskUnits="userSpaceOnUse" x="62" y="90" width="15" height="9">
<path fill-rule="evenodd" clip-rule="evenodd" d="M62.1985 90.6963H76.8482V98.266H62.1985V90.6963Z" fill="white"/>
</mask>
<g mask="url(#mask7_689_4505)">
<path fill-rule="evenodd" clip-rule="evenodd" d="M62.1985 90.9117C62.1985 90.9117 68.7655 94.5927 76.8492 90.6958C76.8492 90.6958 70.1367 107.583 62.1985 90.9117Z" fill="#08BEA3"/>
</g>
<path fill-rule="evenodd" clip-rule="evenodd" d="M73.7075 95.8891C72.7587 95.3905 71.5567 95.0781 70.2271 95.0781C68.4236 95.0781 66.8367 95.6383 65.8395 96.4909C68.9736 99.5946 71.7338 98.1255 73.7075 95.8891Z" fill="#07A68F"/>
</svg>
