<svg width="146" height="146" viewBox="0 0 146 146" fill="none" xmlns="http://www.w3.org/2000/svg">
<g filter="url(#filter0_d_689_5119)">
<rect x="8" y="4" width="130" height="130" rx="20" fill="#F2FCFA"/>
<path d="M70.8669 30.1173C69.3842 30.1346 67.9177 30.4278 66.5423 30.9819C65.5185 31.3998 64.5721 31.9867 63.7427 32.7182C62.9108 31.9866 61.962 31.3997 60.936 30.9819C59.5626 30.4274 58.0977 30.1341 56.6167 30.1173C55.6346 30.1049 54.6539 30.1985 53.6919 30.3965C52.7212 30.5937 51.7743 30.8937 50.8672 31.2915C49.9299 31.7112 49.043 32.2354 48.2234 32.8542C47.4218 33.4621 46.7001 34.1688 46.0754 34.9574C44.8721 36.4802 44.0789 38.2858 43.7717 40.2022C43.4799 42.0262 43.5927 44.0542 44.2138 46.2756C44.4664 47.1335 44.7959 47.9669 45.1983 48.7655C45.6197 49.5983 46.0981 50.401 46.6303 51.1677C47.1718 51.9478 47.7531 52.6994 48.372 53.4195C48.9949 54.148 49.6662 54.8694 50.3625 55.5675C51.0588 56.2656 51.7515 56.9118 52.4603 57.5365C53.1692 58.1612 53.8924 58.7752 54.6441 59.3963C55.396 60.0175 56.1316 60.5849 56.8405 61.1273C57.5815 61.6929 58.2904 62.2156 58.9634 62.7025L59.5792 63.1428C59.8584 63.3558 59.9211 63.3988 59.9765 63.4417C60.5813 63.9098 61.2131 64.342 61.8686 64.7359C62.4281 65.0777 63.071 65.2586 63.7266 65.2586C64.3822 65.2586 65.0252 65.0777 65.5846 64.7359C66.2398 64.3423 66.871 63.9102 67.4749 63.4417L67.4874 63.4292C67.6664 63.2985 67.8669 63.15 68.4969 62.7025C69.417 62.0294 70.3818 61.3134 71.3466 60.5545C71.5638 60.8301 71.7816 61.1147 72 61.4083C72.2363 61.7251 72.4725 62.0545 72.6963 62.3856C72.92 62.715 73.1384 63.0515 73.3443 63.3809C73.5501 63.7102 73.7166 63.9966 73.8813 64.3009C74.046 64.6052 74.1856 64.8684 74.3162 65.1422C74.4469 65.4161 74.5346 65.6273 74.6223 65.8582V65.8833C75.4887 68.2103 77.5472 70.0003 80.0621 71.4788C82.5771 72.9574 85.5431 74.1101 88.2442 75.1626L88.2872 75.1752L88.5181 75.2683L88.7741 75.3667C89.0551 75.4795 89.3522 75.5922 89.6691 75.7247H89.6941C89.8248 75.7748 90.036 75.8679 90.3045 75.9861C90.573 76.1042 90.8952 76.2474 91.2568 76.4156C91.6792 76.609 92.1518 76.8256 92.6494 77.0565C93.2294 77.325 93.8326 77.6096 94.4054 77.8781H94.4233C94.518 77.919 94.6192 77.9426 94.7222 77.9479C94.832 77.9524 94.9418 77.9372 95.0462 77.9031C95.1522 77.873 95.2513 77.8225 95.338 77.7546C95.4213 77.6856 95.4926 77.6033 95.5492 77.5111C95.6082 77.4131 95.6505 77.3061 95.6745 77.1943C95.6951 77.0813 95.6951 76.9654 95.6745 76.8524C95.653 76.7441 95.6124 76.6404 95.5546 76.5463C95.4974 76.4493 95.4213 76.3647 95.3308 76.2975C95.0999 76.1919 94.9012 76.0935 94.7151 76.0057H94.6954H94.6829C94.5039 75.918 94.3356 75.8375 94.2103 75.782H94.1906L94.1351 75.7516H94.1154L93.949 75.671L93.77 75.5851L93.5462 75.4795C93.471 75.4419 93.3905 75.4043 93.3099 75.3614C93.0665 75.2486 92.8248 75.1304 92.576 75.0033C92.3272 74.8763 92.0838 74.7724 91.8421 74.6668C91.6005 74.5612 91.3552 74.4431 91.1064 74.3428C90.8576 74.2426 90.641 74.1441 90.403 74.0511L90.3851 74.0385L90.0432 73.9078L89.7013 73.7772L88.9728 73.498H88.9602C86.7639 72.6638 83.9823 71.5934 81.5622 70.2437C79.1421 68.8941 77.1051 67.2634 76.3586 65.2836V65.2586C76.2405 64.9543 76.1026 64.6249 75.9469 64.2884C75.7912 63.9519 75.5997 63.5849 75.4099 63.2144C75.2041 62.8403 74.9857 62.4608 74.7566 62.0885C74.5275 61.7162 74.284 61.3295 74.028 60.9626C73.7721 60.5956 73.5251 60.2466 73.2637 59.8886C73.0024 59.5306 72.741 59.2299 72.4797 58.9238C72.2184 58.6177 71.9678 58.3456 71.7136 58.0896C71.4594 57.8336 71.2213 57.6117 70.985 57.413C70.7488 57.2143 70.4749 56.9655 70.176 56.6791C69.877 56.3927 69.5674 56.0938 69.2434 55.7644C68.9194 55.4351 68.6276 55.129 68.3162 54.7942C68.0047 54.4595 67.7434 54.1588 67.4641 53.8348C67.2332 53.5609 67.0095 53.2978 66.7982 53.0329C66.5852 52.7644 66.3865 52.4959 66.2075 52.2542C66.0285 52.0126 65.8639 51.7638 65.7207 51.5382C65.5938 51.3354 65.4819 51.1237 65.3859 50.9046L65.3108 50.7256C65.2929 50.6647 65.2749 50.6021 65.2553 50.5466C65.2286 50.4242 65.2142 50.2995 65.2123 50.1742C65.2127 50.1144 65.2169 50.0546 65.2248 49.9952C65.2285 49.9347 65.2387 49.8746 65.2553 49.8162C65.2662 49.7586 65.283 49.7022 65.3054 49.648C65.3206 49.5963 65.3416 49.5464 65.368 49.4994V49.4869L65.3806 49.4547L65.3985 49.4296C65.4084 49.4039 65.421 49.3793 65.436 49.3562L65.4683 49.2613H65.4933H65.5059C65.5716 49.1562 65.6484 49.0584 65.735 48.9696C65.825 48.8815 65.9233 48.8024 66.0285 48.7333C66.1455 48.6517 66.2732 48.5866 66.408 48.54C66.5456 48.4841 66.6891 48.4445 66.8358 48.4218C66.9777 48.3969 67.1214 48.3843 67.2654 48.3842C67.4157 48.3855 67.5657 48.3956 67.7147 48.4147C67.8625 48.4374 68.008 48.4727 68.1497 48.5203C68.2924 48.5646 68.4318 48.6191 68.5668 48.6832H68.5793L68.7583 48.796C68.9624 48.9195 69.1754 49.0573 69.3866 49.2005C69.5978 49.3437 69.8037 49.4994 70.0149 49.6605C70.2261 49.8216 70.4319 49.997 70.6378 50.1707C70.8436 50.3443 71.0477 50.5287 71.2464 50.7077C71.4523 50.8867 71.6509 51.0818 71.8496 51.2679L72.4349 51.8336C72.6139 52.0126 72.8091 52.2077 72.9899 52.3938C73.1706 52.58 73.3479 52.7518 73.5179 52.9308C73.6557 53.0687 73.7918 53.2119 73.9296 53.3479C74.0674 53.4839 74.2017 53.6343 74.3395 53.7703L74.7369 54.1874C74.8747 54.3306 75.0108 54.481 75.1486 54.6242L75.1665 54.6421L75.5102 55.0001L75.8682 55.367V55.3796C76.3157 55.8414 76.7632 56.2943 77.1999 56.7436L77.2357 56.774L77.2483 56.7865C77.3736 56.9118 77.4971 57.0353 77.6277 57.1606L78.0215 57.5186C78.1504 57.6368 78.2829 57.7477 78.4189 57.8659L78.8109 58.1845L78.8288 58.2024C78.8915 58.2525 78.9541 58.2955 79.0078 58.3402C79.0615 58.385 79.1331 58.4333 79.1958 58.4834L79.3873 58.6195C79.45 58.6696 79.518 58.7126 79.5806 58.7555L84.7215 62.6004C84.8198 62.6616 84.9305 62.7001 85.0455 62.7132C85.1616 62.7306 85.28 62.7264 85.3945 62.7007C85.506 62.6745 85.6116 62.6277 85.706 62.5628C85.802 62.4965 85.8841 62.4119 85.9477 62.314C86.0146 62.2188 86.0615 62.1111 86.0855 61.9972C86.1079 61.8843 86.1079 61.7682 86.0855 61.6553C86.0665 61.5401 86.0245 61.4299 85.962 61.3313C85.9032 61.2317 85.8246 61.1452 85.7311 61.0771L82.7131 58.8253C82.5825 58.7143 82.4321 58.589 82.2585 58.4584C82.0848 58.3277 81.9005 58.1845 81.6857 58.0234C81.4709 57.8623 81.2256 57.6869 80.9571 57.4864L80.0424 56.8331L79.9977 56.7955L79.9798 56.7776C79.8617 56.6845 79.7435 56.5986 79.6218 56.4912C79.5001 56.3838 79.373 56.2781 79.2477 56.1672C79.1224 56.0562 78.9989 55.9488 78.8682 55.8378C78.7375 55.7268 78.614 55.6015 78.4834 55.4798L78.4386 55.4368H78.4261L77.8103 54.839C78.9401 53.6643 79.9745 52.4013 80.9034 51.0621C81.461 50.2526 81.9559 49.4016 82.3838 48.5167L84.8665 49.5495C85.5091 49.8109 86.0801 50.0597 86.5974 50.296C87.1147 50.5323 87.5748 50.7632 87.9918 50.9923C88.3841 51.21 88.7642 51.449 89.1303 51.7083C89.4582 51.9467 89.7698 52.2068 90.0629 52.4869C90.3591 52.7729 90.6337 53.0804 90.8845 53.407C91.161 53.7686 91.4185 54.1444 91.656 54.5329C91.9119 54.9446 92.1661 55.3993 92.4346 55.9094C92.7031 56.4196 92.9877 56.9727 93.2992 57.5956L93.3117 57.6135C93.5421 58.0713 93.7979 58.5159 94.0778 58.9452C94.3696 59.4071 94.699 59.8671 95.0534 60.3397C95.4078 60.8122 95.7945 61.2848 96.1918 61.7591C96.5892 62.2335 97.0134 62.6989 97.4448 63.1643L97.4627 63.184C97.767 63.5133 98.0857 63.8427 98.4025 64.1721C98.7193 64.5014 99.0809 64.863 99.4228 65.1995C99.7647 65.536 100.139 65.8833 100.497 66.2198C100.855 66.5563 101.238 66.9108 101.599 67.2347C101.692 67.2658 101.788 67.285 101.886 67.292C101.982 67.2968 102.079 67.2859 102.172 67.2598C102.273 67.2341 102.367 67.1898 102.451 67.1291C102.539 67.0768 102.615 67.0074 102.675 66.9251C102.737 66.8436 102.785 66.753 102.818 66.6566C102.854 66.5607 102.876 66.4599 102.881 66.3576C102.882 66.2586 102.867 66.1601 102.836 66.0659C102.809 65.9706 102.767 65.8801 102.713 65.7974C102.333 65.4501 101.947 65.0814 101.562 64.7234C101.177 64.3654 100.826 64.0074 100.459 63.6494C100.092 63.2914 99.7754 62.9584 99.4335 62.6094C99.0916 62.2603 98.7981 61.9381 98.4866 61.6016V61.5891C98.0749 61.1416 97.6829 60.6941 97.3106 60.252C96.9383 59.8098 96.625 59.4053 96.3207 58.9882C96.0164 58.5711 95.7551 58.2042 95.517 57.8319C95.3008 57.4913 95.1018 57.14 94.9209 56.7793C94.5719 56.0759 94.2425 55.4422 93.9311 54.8694C93.6196 54.2966 93.3207 53.7793 93.0361 53.3193C92.7515 52.8593 92.4454 52.4422 92.1411 52.0663C91.8482 51.7035 91.5318 51.3603 91.1941 51.0388C90.862 50.7205 90.5066 50.4273 90.1309 50.1617C89.7336 49.8787 89.32 49.6193 88.8922 49.3848C88.4322 49.136 87.9346 48.8926 87.3797 48.6366C86.8248 48.3807 86.2358 48.139 85.5753 47.8723H85.5503L83.0622 46.8395C83.123 46.6605 83.1803 46.4725 83.2304 46.2917C83.8641 44.0704 83.9697 42.0423 83.6726 40.2183C83.3684 38.301 82.575 36.4946 81.3688 34.9736C80.747 34.1872 80.0304 33.4808 79.2352 32.8703C77.6185 31.6508 75.7494 30.8086 73.7649 30.4055C72.8028 30.208 71.8222 30.1144 70.8401 30.1262L70.8669 30.1173ZM70.2207 59.246C69.2863 59.962 68.3663 60.6511 67.4749 61.2919C67.0649 61.5909 66.7481 61.8289 66.4617 62.0402L66.4492 62.0527C65.9075 62.4726 65.3421 62.8611 64.7559 63.2162C64.4549 63.4146 64.1023 63.5205 63.7418 63.5205C63.3813 63.5205 63.0287 63.4146 62.7278 63.2162C62.141 62.8619 61.5755 62.4734 61.0344 62.0527L60.6245 61.7466C60.4061 61.5909 60.1949 61.4298 60.0016 61.2919C59.3107 60.7943 58.6161 60.28 57.918 59.749C57.202 59.2012 56.4735 58.6356 55.77 58.0502C55.0666 57.4649 54.3577 56.8814 53.6417 56.2406C52.9257 55.5997 52.2599 54.9768 51.6262 54.3414C50.9532 53.6701 50.3124 52.9846 49.7217 52.2882C49.1401 51.6142 48.594 50.9104 48.0856 50.1796C47.6011 49.4796 47.1646 48.7476 46.7789 47.9887C46.4218 47.2897 46.1317 46.5585 45.9125 45.8048C45.3594 43.8358 45.2592 42.0584 45.5152 40.4832C45.769 38.8609 46.4401 37.3324 47.4627 36.0476C47.9945 35.3761 48.6092 34.7747 49.292 34.2576C50.001 33.72 50.7691 33.2654 51.5814 32.9025C52.3728 32.5543 53.1991 32.2914 54.0463 32.1185C54.8829 31.9422 55.7368 31.8605 56.5917 31.8751C57.8543 31.8863 59.1037 32.1334 60.2755 32.6036C61.3456 33.0411 62.3107 33.7007 63.1073 34.5386L63.7481 35.2224L64.3889 34.5386C65.1815 33.6993 66.1446 33.0395 67.2135 32.6036C68.3857 32.1346 69.6349 31.8875 70.8973 31.8751C71.754 31.8602 72.6097 31.9418 73.4481 32.1185C74.293 32.2912 75.1169 32.554 75.9058 32.9025C76.7206 33.2649 77.4911 33.7196 78.2023 34.2576C78.8823 34.778 79.4966 35.3791 80.0317 36.0476C81.0501 37.3349 81.7207 38.8622 81.9792 40.4832C82.2352 42.0584 82.135 43.8376 81.5765 45.8048C81.1091 47.3284 80.4008 48.7672 79.4786 50.0668C78.6166 51.3165 77.6552 52.4945 76.6039 53.5896L76.0257 52.9917L75.7268 52.6802C75.2238 52.1576 74.7136 51.6224 74.1963 51.0997C73.679 50.577 73.1635 50.0668 72.6533 49.5943C72.1432 49.1217 71.6384 48.6724 71.1479 48.2751C70.6934 47.9057 70.215 47.5667 69.7159 47.2601L69.6963 47.2476C69.2325 46.9673 68.7257 46.7653 68.1962 46.6497C67.9405 46.5968 67.6805 46.568 67.4194 46.5638C67.1612 46.5516 66.9024 46.5683 66.6479 46.6139C66.4661 46.6394 66.2866 46.6789 66.1109 46.7321C65.9332 46.786 65.7586 46.8499 65.5882 46.9236C65.4199 47.0059 65.2588 47.0919 65.1031 47.1867C64.9518 47.2853 64.8065 47.3929 64.6682 47.5089C64.5273 47.62 64.3978 47.7447 64.2815 47.8813C64.1634 48.0121 64.0551 48.1515 63.9575 48.2983C63.8609 48.4461 63.7736 48.5997 63.6962 48.7583C63.627 48.9188 63.5672 49.0832 63.5172 49.2506L63.5047 49.281C63.4546 49.4669 63.4211 49.6567 63.4044 49.8485C63.3855 50.0491 63.3855 50.2511 63.4044 50.4517C63.421 50.658 63.4563 50.8623 63.51 51.0621C63.5639 51.2663 63.6346 51.4656 63.7212 51.6582L63.7338 51.6778C63.8448 51.919 63.9691 52.1539 64.1061 52.3813C64.2618 52.648 64.4498 52.9291 64.6538 53.2208C64.8579 53.5126 65.1085 53.8491 65.3573 54.1731C65.6061 54.4971 65.9122 54.8569 66.1968 55.1988C66.5154 55.5675 66.8376 55.9345 67.1562 56.2728C67.4749 56.6111 67.8347 56.9888 68.1515 57.3056C68.4683 57.6224 68.7923 57.9285 69.0787 58.1845C69.3101 58.3968 69.5533 58.5958 69.8072 58.7806L69.8198 58.8003C69.9558 58.9309 70.0936 59.0795 70.2368 59.2298L70.2207 59.246Z" fill="#5E5956"/>
<path fill-rule="evenodd" clip-rule="evenodd" d="M69.4852 31.7645C67.5 32.0456 65.6277 32.8851 64.2208 34.3923L63.7428 34.9078L63.2578 34.3923C62.8589 33.9646 62.414 33.5822 61.9314 33.252C61.4367 32.9176 60.9096 32.6339 60.3579 32.4053C58.1598 31.4978 55.6395 31.4352 53.3 32.0635C50.9605 32.6918 48.7713 34.0324 47.2838 35.9155C46.2348 37.2369 45.5481 38.8089 45.2915 40.4765C45.0177 42.1877 45.1734 44.0117 45.7032 45.8662C46.5678 48.9217 48.8823 51.9325 51.5959 54.6372C54.3095 57.3418 57.4009 59.6903 59.8782 61.4821C60.0948 61.6378 60.3078 61.7989 60.5316 61.9672C61.2036 62.4854 61.9014 62.9693 62.6223 63.4171C62.9557 63.6332 63.3446 63.7482 63.7419 63.7482C64.1393 63.7482 64.5282 63.6332 64.8616 63.4171C65.4566 63.0566 66.0303 62.6621 66.58 62.2357L70.339 59.429L70.5448 59.2804L70.3658 59.1014L69.9362 58.6539L69.904 58.6288C69.8056 58.5537 69.7 58.4731 69.5872 58.38L69.1952 58.0435C68.0241 56.9639 66.9301 55.8035 65.9213 54.5709C65.0567 53.5202 64.2977 52.4551 63.9111 51.6156L63.6873 50.9999L63.6319 50.7332C63.6193 50.6383 63.6068 50.5542 63.5943 50.4468C63.5781 50.2621 63.5781 50.0765 63.5943 49.8919C63.6105 49.7106 63.6416 49.531 63.6873 49.3549C63.8083 48.9526 63.9998 48.575 64.253 48.2397C64.5141 47.9016 64.8321 47.6114 65.1927 47.3823C65.5147 47.1796 65.8653 47.0263 66.2327 46.9276C66.6091 46.8238 66.9989 46.7774 67.3891 46.7898C67.7733 46.7958 68.1548 46.8561 68.5221 46.9688C68.8926 47.0852 69.2478 47.2456 69.58 47.4467C71.4595 48.5869 73.7239 50.939 75.5604 52.8418C75.8594 53.1604 76.1511 53.4593 76.4196 53.7368L76.5807 53.8979L76.7364 53.7368C77.8351 52.5926 78.8384 51.3605 79.7365 50.053C80.6253 48.7683 81.3095 47.3534 81.7645 45.859C82.0261 44.9491 82.197 44.0155 82.2747 43.072C82.3436 42.1973 82.3081 41.3176 82.1691 40.4514C81.9003 38.7698 81.199 37.187 80.1339 35.8583C79.0206 34.4879 77.5954 33.404 75.9775 32.6971C73.9348 31.7923 71.6825 31.4672 69.4673 31.7574L69.4852 31.7645ZM58.4212 35.4609C58.4515 35.2456 58.4009 35.0267 58.2793 34.8465C58.1576 34.6664 57.9735 34.5377 57.7624 34.4853C56.3008 34.2737 54.8091 34.4539 53.4399 35.0076C52.0707 35.5613 50.873 36.4686 49.9693 37.6368C49.0656 38.805 48.4883 40.1922 48.2964 41.6566C48.1045 43.121 48.3048 44.6101 48.8769 45.9718C49.0085 46.1268 49.1885 46.2329 49.3878 46.2731C49.5872 46.3132 49.7942 46.2849 49.9755 46.1928C50.1568 46.1007 50.3018 45.9502 50.3869 45.7655C50.4721 45.5809 50.4925 45.3729 50.4449 45.1752C50.0825 44.2712 49.9271 43.2975 49.9903 42.3255C50.0722 41.0073 50.5485 39.7442 51.3574 38.7001C52.1662 37.656 53.2702 36.8792 54.5261 36.4704C55.4874 36.1609 56.5065 36.0733 57.5065 36.2145C57.7257 36.2264 57.9413 36.1556 58.1108 36.016C58.2802 35.8764 58.391 35.6783 58.4212 35.4609Z" fill="#EF6969"/>
<path d="M40.8516 107V100.289C40.8516 99.862 40.7682 99.526 40.6016 99.2812C40.4401 99.0365 40.1953 98.8646 39.8672 98.7656C39.7422 98.7083 39.5911 98.6641 39.4141 98.6328C39.2422 98.6016 39.0469 98.5859 38.8281 98.5859C38.3958 98.5859 37.8932 98.6068 37.3203 98.6484C36.7474 98.6849 36.0312 98.7474 35.1719 98.8359V96.9922C35.4479 96.9505 35.724 96.9167 36 96.8906C36.276 96.8646 36.5547 96.8411 36.8359 96.8203C37.2266 96.7943 37.6068 96.776 37.9766 96.7656C38.3464 96.75 38.7057 96.7422 39.0547 96.7422C39.6641 96.7422 40.1797 96.776 40.6016 96.8438C41.0286 96.9115 41.3958 97.0208 41.7031 97.1719C42.0156 97.3281 42.276 97.5104 42.4844 97.7188C42.6927 97.9271 42.8542 98.1901 42.9688 98.5078C43.0625 98.7786 43.1276 99.0521 43.1641 99.3281C43.2005 99.599 43.2188 99.9193 43.2188 100.289V107H40.8516ZM35.1797 107V100.969H37.5312V107H35.1797ZM49.4062 107V100.289C49.4062 99.8411 49.3151 99.4922 49.1328 99.2422C48.9505 98.987 48.6797 98.8099 48.3203 98.7109C48.2057 98.6693 48.0755 98.638 47.9297 98.6172C47.7891 98.5964 47.6354 98.5859 47.4688 98.5859C47.2344 98.5859 46.9661 98.5938 46.6641 98.6094C46.3672 98.6198 46.0573 98.6354 45.7344 98.6562C45.4115 98.6771 45.0911 98.7031 44.7734 98.7344V96.875C45.2786 96.8281 45.75 96.7943 46.1875 96.7734C46.625 96.7526 47.0286 96.7422 47.3984 96.7422C48.138 96.7422 48.7188 96.776 49.1406 96.8438C49.5625 96.9062 49.9323 97.0156 50.25 97.1719C50.5677 97.3281 50.8281 97.5104 51.0312 97.7188C51.2396 97.9219 51.401 98.1849 51.5156 98.5078C51.6094 98.7786 51.6745 99.0521 51.7109 99.3281C51.7474 99.599 51.7656 99.9193 51.7656 100.289V107H49.4062ZM54.3438 107V102.656C54.3438 102.13 54.3906 101.641 54.4844 101.188C54.5781 100.729 54.7135 100.326 54.8906 99.9766C55.026 99.7214 55.1719 99.4922 55.3281 99.2891C55.4844 99.0807 55.6562 98.8958 55.8438 98.7344H53.7656V96.8984H58.0625V98.6016C57.9167 98.7161 57.7786 98.8568 57.6484 99.0234C57.5234 99.1901 57.4089 99.3672 57.3047 99.5547C57.2057 99.737 57.1224 99.9141 57.0547 100.086C56.9609 100.336 56.888 100.609 56.8359 100.906C56.7891 101.203 56.7578 101.464 56.7422 101.688C56.7318 101.812 56.7214 101.956 56.7109 102.117C56.7057 102.279 56.7031 102.458 56.7031 102.656V107H54.3438ZM58.9219 107.5V105.609L60.7578 105.336C60.8932 105.31 61.0286 105.286 61.1641 105.266C61.2995 105.24 61.4349 105.214 61.5703 105.188L59.3438 96.8984H61.6953L62.9062 101.336L63.5859 104.438C63.8568 104.25 64.0938 104.01 64.2969 103.719C64.5052 103.427 64.6771 103.089 64.8125 102.703C64.9479 102.312 65.0391 101.883 65.0859 101.414L65.5 96.8984H67.8203L67.4141 101.312C67.3828 101.661 67.3307 101.995 67.2578 102.312C67.1901 102.63 67.1016 102.93 66.9922 103.211C66.888 103.487 66.763 103.745 66.6172 103.984C66.2266 104.807 65.6458 105.474 64.875 105.984C64.1094 106.495 63.1589 106.839 62.0234 107.016C61.487 107.099 60.9583 107.18 60.4375 107.258C59.9219 107.341 59.4167 107.422 58.9219 107.5ZM74.3828 107.102C74.1901 107.102 74 107.081 73.8125 107.039C73.625 106.997 73.4297 106.935 73.2266 106.852V105.133C73.5234 105.185 73.8047 105.211 74.0703 105.211C74.3828 105.211 74.6042 105.125 74.7344 104.953C74.8698 104.776 74.9375 104.497 74.9375 104.117V98.7578C74.7552 98.7682 74.5703 98.7812 74.3828 98.7969C74.2005 98.8125 74.0182 98.8255 73.8359 98.8359V96.9922C74.3984 96.9349 74.9375 96.888 75.4531 96.8516C75.9688 96.8151 76.4635 96.7891 76.9375 96.7734C77.4115 96.7526 77.8646 96.7422 78.2969 96.7422C78.7969 96.7422 79.2344 96.7656 79.6094 96.8125C79.9896 96.8542 80.3203 96.9193 80.6016 97.0078C80.888 97.0964 81.138 97.2109 81.3516 97.3516C81.5964 97.513 81.7969 97.6927 81.9531 97.8906C82.1094 98.0833 82.2344 98.3255 82.3281 98.6172C82.401 98.8255 82.4505 99.0625 82.4766 99.3281C82.5078 99.5885 82.5234 99.8802 82.5234 100.203V107H80.1641V100.297C80.1641 99.8333 80.0677 99.474 79.875 99.2188C79.6875 98.9583 79.4036 98.7839 79.0234 98.6953C78.8047 98.6276 78.526 98.5938 78.1875 98.5938C78.0312 98.5938 77.8776 98.5964 77.7266 98.6016C77.5807 98.6016 77.4375 98.6068 77.2969 98.6172V104.117C77.2969 104.466 77.2708 104.781 77.2188 105.062C77.1719 105.344 77.0859 105.607 76.9609 105.852C76.8203 106.138 76.6302 106.375 76.3906 106.562C76.1562 106.74 75.8724 106.875 75.5391 106.969C75.2057 107.057 74.8203 107.102 74.3828 107.102ZM87.4922 107L88.3203 103.133L89.6094 98.7422H84.4453V94.8438H86.8047V96.8828H92.0078V98.4453L90.6328 103.18L89.8281 107H87.4922ZM93.4062 107V105.156H97.9766V100.289C97.9766 99.8464 97.888 99.5026 97.7109 99.2578C97.5391 99.0078 97.2786 98.8333 96.9297 98.7344C96.8099 98.6875 96.6719 98.651 96.5156 98.625C96.3594 98.599 96.1849 98.5859 95.9922 98.5859C95.6849 98.5859 95.3281 98.599 94.9219 98.625C94.5156 98.651 94.0104 98.6901 93.4062 98.7422V96.9062C93.75 96.849 94.1536 96.8073 94.6172 96.7812C95.0807 96.7552 95.6042 96.7422 96.1875 96.7422C96.6771 96.7422 97.1042 96.7656 97.4688 96.8125C97.8385 96.8542 98.1745 96.9245 98.4766 97.0234C98.7839 97.1224 99.0417 97.2448 99.25 97.3906C99.4583 97.5365 99.6276 97.7135 99.7578 97.9219C99.9141 98.1146 100.034 98.3255 100.117 98.5547C100.201 98.7786 100.258 99.026 100.289 99.2969C100.32 99.5677 100.336 99.8672 100.336 100.195V105.156H101.461V107H93.4062ZM107.109 107C107.109 106.938 107.109 106.875 107.109 106.812C107.109 106.75 107.109 106.688 107.109 106.625C107.109 106.385 107.141 106.076 107.203 105.695C107.266 105.31 107.344 104.911 107.438 104.5C107.474 104.333 107.516 104.151 107.562 103.953C107.615 103.75 107.669 103.544 107.727 103.336C107.789 103.128 107.852 102.932 107.914 102.75L109.289 98.7344H103.094V96.8984H111.859V98.3281L110.312 102.797C110.25 102.964 110.185 103.156 110.117 103.375C110.049 103.589 109.984 103.802 109.922 104.016C109.865 104.229 109.815 104.422 109.773 104.594C109.737 104.74 109.701 104.904 109.664 105.086C109.628 105.263 109.594 105.448 109.562 105.641C109.531 105.828 109.505 106.008 109.484 106.18C109.464 106.352 109.453 106.5 109.453 106.625V107H107.109ZM103.094 110.844V100.953H105.461V110.844H103.094Z" fill="#0D3C70"/>
<rect x="8" y="4" width="130" height="130" rx="20" stroke="#69D7C7" stroke-width="2"/>
</g>
<defs>
<filter id="filter0_d_689_5119" x="0" y="0" width="146" height="146" filterUnits="userSpaceOnUse" color-interpolation-filters="sRGB">
<feFlood flood-opacity="0" result="BackgroundImageFix"/>
<feColorMatrix in="SourceAlpha" type="matrix" values="0 0 0 0 0 0 0 0 0 0 0 0 0 0 0 0 0 0 127 0" result="hardAlpha"/>
<feOffset dy="4"/>
<feGaussianBlur stdDeviation="3.5"/>
<feColorMatrix type="matrix" values="0 0 0 0 0.0201562 0 0 0 0 0.265822 0 0 0 0 0.5375 0 0 0 1 0"/>
<feBlend mode="normal" in2="BackgroundImageFix" result="effect1_dropShadow_689_5119"/>
<feBlend mode="normal" in="SourceGraphic" in2="effect1_dropShadow_689_5119" result="shape"/>
</filter>
</defs>
</svg>
