<svg width="144" height="144" viewBox="0 0 144 144" fill="none" xmlns="http://www.w3.org/2000/svg">
<g filter="url(#filter0_d_689_5120)">
<rect x="7" y="3" width="130" height="130" rx="20" fill="white"/>
<g clip-path="url(#clip0_689_5120)">
<path fill-rule="evenodd" clip-rule="evenodd" d="M86.0242 69.4105C86.3264 69.2112 86.6045 68.9776 86.853 68.7142L86.8959 68.6713C87.4437 68.0734 87.6996 67.4952 87.7426 66.8813C87.7855 66.2673 87.6245 65.6122 87.3327 64.8962C87.3205 64.8696 87.3055 64.8444 87.2879 64.821C87.27 64.7906 87.2503 64.7601 87.2324 64.7351C87.1322 64.5919 87.0266 64.4612 86.9156 64.3305C86.8046 64.1998 86.6596 64.0692 86.529 63.951C86.2636 63.719 85.9785 63.5106 85.6769 63.3281C85.3639 63.1428 85.0399 62.9766 84.7067 62.8305C84.4007 62.6998 84.0838 62.5745 83.7724 62.4725C83.4144 62.3544 83.0814 62.2559 82.7521 62.1682C82.2544 62.0375 81.7622 61.9015 81.27 61.7583C80.7777 61.6151 80.2998 61.4647 79.8093 61.309C79.616 61.2535 79.36 61.1783 79.0933 61.0978C78.8266 61.0172 78.6082 60.9492 78.5008 60.9188C77.9298 60.7505 77.3695 60.5769 76.8093 60.3818C76.249 60.1867 75.7138 60.0059 75.1768 59.7965C74.6398 59.587 74.1028 59.3812 73.5658 59.1556C73.0288 58.9301 72.4918 58.6831 71.9548 58.4289C70.4798 57.7129 69.08 56.9665 67.6803 56.22L67.6248 56.1878C67.1827 55.9515 66.9714 55.8388 66.8157 55.7582C66.5347 55.6025 66.3109 55.4843 66.225 55.4414H66.2125L66.1928 55.4289H66.1802H66.1677C65.5466 55.0923 64.8986 54.7755 64.2453 54.4712C63.5919 54.1669 62.9207 53.8912 62.2351 53.6371C61.5495 53.3829 60.8532 53.152 60.1444 52.964C59.4441 52.7772 58.7334 52.632 58.0161 52.529C57.5156 52.455 57.0111 52.4113 56.5053 52.3984C56.0068 52.3805 55.5076 52.393 55.0106 52.436C53.8346 52.5362 52.0554 52.9891 50.5052 53.3757C49.8018 53.5547 49.143 53.7337 48.6078 53.8429L40.1948 55.615C40.0194 55.6638 39.8618 55.762 39.7406 55.8978C39.6193 56.0336 39.5397 56.2014 39.511 56.3811C39.4902 56.5226 39.4989 56.6669 39.5365 56.8049C39.5741 56.9429 39.6397 57.0716 39.7294 57.1831C39.8257 57.3081 39.9566 57.4019 40.106 57.4529C40.2553 57.5038 40.4163 57.5096 40.5689 57.4695L49.2665 55.5309C49.8769 55.4002 50.5858 55.2069 51.3143 55.0136C52.5673 54.6842 53.8722 54.3352 54.8495 54.217C56.369 54.0664 57.9031 54.1876 59.38 54.575C61.1038 54.9921 63.0764 55.751 65.3586 56.9593L65.3837 56.9718H65.3962L65.4392 56.9969C65.6576 57.1079 65.9118 57.2457 66.1856 57.3943C66.5436 57.5733 66.753 57.6932 66.932 57.7934H66.95C70.709 59.8036 73.2794 61.173 78.0086 62.5781C78.499 62.7213 78.8105 62.8162 79.0718 62.9021L79.2848 62.9648L79.5014 63.0328C80.4788 63.3263 81.4704 63.6235 82.3081 63.8419C83.1509 64.0449 83.9629 64.3591 84.7229 64.7762C85.3887 65.1682 85.7861 65.5961 85.9615 66.0292C86.0214 66.1672 86.053 66.3157 86.0546 66.466C86.0593 66.614 86.0362 66.7615 85.9866 66.901C85.9229 67.0648 85.8348 67.2181 85.7253 67.3556C85.6019 67.5095 85.462 67.6493 85.3082 67.7727C84.6016 68.2922 83.7706 68.6163 82.8989 68.7124C81.9041 68.8354 80.8949 68.7674 79.9257 68.512L78.8982 68.2453C78.4758 68.1325 78.0945 68.034 77.7472 67.9463H77.7347C73.2794 66.7703 68.842 65.5996 65.0257 66.0847C64.3849 66.1724 63.9517 66.5143 63.7727 66.8938C63.7184 67.0053 63.6908 67.1278 63.6921 67.2518C63.6972 67.3635 63.7338 67.4715 63.7978 67.5633C63.9589 67.7745 64.3008 67.9051 64.8718 67.855C64.9094 67.855 64.9648 67.8425 65.04 67.8371C65.1385 67.8246 65.2011 67.8121 65.2441 67.8067C65.7194 67.7499 66.1974 67.7183 66.6761 67.7118C67.1612 67.6993 67.6481 67.7118 68.1331 67.7494C68.6182 67.787 69.1033 67.8371 69.5956 67.9052C70.0878 67.9732 70.5729 68.0484 71.0508 68.1414C72.0783 68.3294 73.0986 68.5531 74.1064 68.8019C75.1141 69.0508 76.1219 69.3121 77.1118 69.5788L77.6667 69.722C77.8457 69.7668 78.0086 69.8097 78.1213 69.8401L78.5688 69.9583C78.6995 69.9959 78.8355 70.0281 78.9483 70.0585C79.0969 70.1015 79.2777 70.1462 79.4853 70.2017C79.9468 70.3208 80.4165 70.4058 80.8905 70.4559C81.3596 70.512 81.8325 70.5306 82.3046 70.5114C82.7623 70.4905 83.2177 70.4343 83.6668 70.3431C84.0891 70.2593 84.5035 70.1395 84.9054 69.9851C85.2932 69.8304 85.6639 69.6361 86.0117 69.4052L86.0242 69.4105ZM85.4711 57.4569C84.5963 58.0017 83.6948 58.5023 82.77 58.9569L82.6715 58.9999C82.2097 59.2111 82.0307 59.5369 82.0361 59.8466C82.0398 59.9759 82.0716 60.103 82.1291 60.2189C82.1837 60.3376 82.2624 60.4436 82.3601 60.5304C82.4729 60.6413 82.6175 60.7143 82.7738 60.739C82.9301 60.7637 83.0903 60.739 83.2318 60.6682C83.9585 60.3102 84.4848 60.0274 85.0218 59.7284C85.5588 59.4295 86.1101 59.1001 86.8816 58.633C87.9556 57.985 89.0296 57.3012 90.0499 56.5727C91.0702 55.8441 92.0654 55.0726 93.0177 54.2457C93.2796 54.0227 93.5633 53.8266 93.8644 53.6603C94.1405 53.5114 94.4356 53.4006 94.7415 53.331C94.8954 53.3 95.0518 53.2832 95.2087 53.2809C95.3447 53.2805 95.4797 53.3035 95.6079 53.3489C95.7097 53.3831 95.803 53.4386 95.8817 53.5118C95.9615 53.586 96.0265 53.6747 96.0732 53.7731C96.1153 53.8708 96.1465 53.9729 96.1663 54.0774C96.1918 54.1952 96.2068 54.315 96.2111 54.4354V54.516L96.1484 54.5661C95.2839 55.2946 94.3745 55.9981 93.4348 56.6514C92.495 57.3048 91.532 57.9277 90.5475 58.5184L90.1054 58.7851C89.0171 59.4331 88.5946 59.6944 87.2629 60.3603C86.8028 60.5715 86.6292 60.8973 86.6292 61.207C86.634 61.3362 86.6657 61.463 86.7223 61.5793C86.7766 61.7016 86.8573 61.8104 86.9586 61.8979C87.0703 62.0082 87.2138 62.0807 87.369 62.1051C87.5241 62.1295 87.6829 62.1046 87.8231 62.034C88.557 61.667 89.0761 61.386 89.6131 61.0888C90.1501 60.7917 90.6871 60.4659 91.4748 59.9934C92.5488 59.3454 93.6227 58.6616 94.6413 57.9331C95.6598 57.2045 96.6639 56.433 97.6162 55.6061C97.8731 55.3804 98.1547 55.1846 98.4557 55.0225C98.7327 54.8751 99.0275 54.7638 99.3328 54.6914C99.4856 54.6539 99.6428 54.6376 99.8 54.643C99.9356 54.6403 100.071 54.6609 100.199 54.7039C100.303 54.7348 100.397 54.7908 100.473 54.8668C100.555 54.9391 100.62 55.0282 100.665 55.1281C100.732 55.2706 100.775 55.4239 100.79 55.581C100.813 55.7737 100.813 55.9683 100.79 56.161C100.785 56.2515 100.769 56.3411 100.742 56.4277C100.714 56.5233 100.68 56.6171 100.641 56.7087L100.566 56.7893C100.513 56.8129 100.461 56.8398 100.41 56.8698C100.22 56.9741 100.036 57.0882 99.8573 57.2117C99.664 57.3495 99.4778 57.4927 99.3042 57.6413C98.3949 58.4253 97.4372 59.1664 96.4402 59.8752C95.4432 60.5841 94.4247 61.2392 93.3793 61.8603L92.9622 62.1163C91.8614 62.775 91.4371 63.031 90.0982 63.7022C89.6364 63.9063 89.4556 64.2392 89.4628 64.5471C89.4663 64.6771 89.498 64.8048 89.5559 64.9212C89.6102 65.0416 89.6888 65.1495 89.7868 65.238C89.8989 65.3477 90.0423 65.4199 90.1971 65.4446C90.352 65.4693 90.5107 65.4453 90.6513 65.3759C91.3852 65.0089 91.9043 64.7279 92.4413 64.4236C92.9783 64.1193 93.5154 63.8007 94.2958 63.3353C95.3698 62.6873 96.4348 62.0035 97.4623 61.275C98.4897 60.5465 99.485 59.7696 100.437 58.948C100.696 58.7213 100.979 58.525 101.282 58.3627C101.556 58.2119 101.849 58.101 102.154 58.0333C102.305 58.0017 102.459 57.9849 102.614 57.9832C102.751 57.9803 102.888 58.0015 103.018 58.0458C103.12 58.0803 103.213 58.1351 103.292 58.2069C103.373 58.2825 103.439 58.3731 103.486 58.4736C103.547 58.6214 103.589 58.7767 103.609 58.9355C103.628 59.1236 103.628 59.313 103.609 59.5011C103.572 59.9987 103.154 60.6646 102.637 61.3251C102.12 61.9856 101.531 62.6121 101.107 63.0668C101.039 63.142 100.976 63.21 100.908 63.278C100.84 63.346 100.79 63.4087 100.747 63.457C96.9324 67.7083 93.5225 70.7692 90.2808 72.8724C87.0391 74.9757 83.9388 76.1392 80.7652 76.5634C77.5915 76.9876 74.2943 76.6869 70.6481 75.8903C67.0019 75.0938 63.0245 73.8193 58.4331 72.2817C55.2845 71.231 50.9151 72.0508 47.0881 72.774C46.0141 72.9726 44.9723 73.1713 44.02 73.311C43.8341 73.3557 43.6662 73.4558 43.5383 73.598C43.4105 73.7402 43.3288 73.9179 43.304 74.1075C43.291 74.2363 43.2994 74.3664 43.3291 74.4924C43.3572 74.6141 43.4103 74.7286 43.4848 74.8289C43.5906 74.957 43.7331 75.0496 43.8932 75.0941C44.0532 75.1386 44.2231 75.1329 44.3798 75.0777C47.1328 74.4626 49.9227 74.0261 52.732 73.771C54.8478 73.592 56.7953 73.5777 57.8585 73.9392C58.3132 74.0878 58.8108 74.2561 59.3961 74.4494C59.9815 74.6427 60.5471 74.8289 61.1199 75.015L62.756 75.5377C63.3288 75.7167 63.8765 75.8957 64.4046 76.0479C64.9022 76.1982 65.3944 76.3414 65.8867 76.4846C66.3789 76.6278 66.8569 76.7585 67.3294 76.882C67.8342 77.0127 68.3265 77.1433 68.8169 77.2615C69.3074 77.3796 69.7943 77.4924 70.2919 77.6034C71.1636 77.7913 72.0353 77.9614 72.9124 78.0956C73.7895 78.2299 74.6666 78.3391 75.5634 78.4071C76.4584 78.4751 77.3534 78.5127 78.2377 78.493C79.1357 78.4767 80.0321 78.4104 80.9227 78.2943C81.8435 78.1765 82.7559 78.0001 83.6542 77.7663C84.537 77.5351 85.4054 77.2524 86.2551 76.9196C87.1009 76.5872 87.9279 76.2089 88.7325 75.7865C89.5469 75.3641 90.3435 74.904 91.1221 74.3993C92.1424 73.7405 93.1305 73.0246 94.0953 72.2656C95.0601 71.5066 95.9927 70.6904 96.9092 69.8563C97.8113 69.0209 98.6884 68.1641 99.5405 67.2858C100.393 66.4159 101.221 65.5191 102.03 64.6241C102.091 64.5543 102.184 64.4451 102.297 64.3305L102.476 64.1318C103.602 62.9111 105.208 61.1819 105.328 59.6443C105.351 59.3335 105.345 59.0212 105.308 58.7117C105.273 58.4322 105.204 58.1581 105.102 57.8955C105.005 57.6371 104.869 57.3955 104.697 57.1795C104.529 56.9736 104.328 56.797 104.101 56.6568C103.926 56.5431 103.738 56.4512 103.541 56.3829C103.335 56.3149 103.122 56.2711 102.906 56.2523C102.868 56.2523 102.825 56.2523 102.788 56.2397C102.75 56.2272 102.702 56.2397 102.664 56.2397H102.501V56.0786C102.507 55.8058 102.493 55.533 102.458 55.2624C102.424 55.0181 102.364 54.7781 102.279 54.5464C102.177 54.2883 102.036 54.0469 101.862 53.8304C101.695 53.6188 101.493 53.4372 101.264 53.2934C101.083 53.1795 100.889 53.0876 100.686 53.0195C100.485 52.9568 100.279 52.913 100.07 52.8888C99.8547 52.8709 99.638 52.8709 99.4223 52.8888C99.1874 52.909 98.9545 52.9486 98.726 53.007C98.59 53.0446 98.4522 53.0875 98.3215 53.1377C98.1908 53.1878 98.0476 53.2433 97.917 53.3005L97.7559 53.3739L97.6932 53.2057L97.7308 53.2039C97.6345 52.9486 97.4959 52.7114 97.3209 52.5022C97.1504 52.2936 96.9487 52.1124 96.723 51.9652C96.5467 51.8553 96.3588 51.7653 96.1628 51.6967C95.9584 51.6304 95.7479 51.5848 95.5345 51.5607C95.3111 51.541 95.0865 51.541 94.8632 51.5607C94.6362 51.586 94.4113 51.6272 94.1902 51.6842C93.9912 51.7362 93.7957 51.8008 93.6048 51.8775C93.399 51.9652 93.2003 52.0565 93.0016 52.1639C92.8048 52.2735 92.6136 52.393 92.4288 52.5219C92.2418 52.6496 92.0625 52.7883 91.8918 52.9372C90.9757 53.7305 90.0198 54.4767 89.0278 55.1729C88.0379 55.8746 87.0123 56.5351 85.9669 57.1634C85.7879 57.269 85.625 57.3692 85.4747 57.4551L85.4711 57.4569Z" fill="#5E5956"/>
<path d="M68.7733 28.0023C67.5286 28.0301 66.3005 28.3041 65.1604 28.8099L65.1578 28.811L65.1578 28.811C63.894 29.363 62.7833 30.2137 61.9212 31.29C60.4583 33.1427 59.7686 35.7239 60.6915 38.9685L68.7733 28.0023ZM68.7733 28.0023L69.0965 28.0079C71.0756 28.0419 72.9459 28.7321 74.2403 30.1189L74.6055 30.5102L74.9711 30.1191C76.267 28.7325 78.1369 28.0421 80.121 28.0079M68.7733 28.0023L80.121 28.0079M80.121 28.0079C81.4751 27.9913 82.8168 28.2672 84.0545 28.817L84.0545 28.817L84.0585 28.8187C85.3251 29.3681 86.4382 30.2189 87.3008 31.2968C88.758 33.1489 89.4476 35.7288 88.5267 38.9711C88.1511 40.1989 87.5785 41.3574 86.8312 42.4015L86.8287 42.405C86.0145 43.5632 85.0955 44.6441 84.0833 45.634L84.0832 45.634L84.0796 45.6376C83.0718 46.6437 81.9785 47.6099 80.8678 48.5165C79.758 49.4224 78.6395 50.2588 77.5949 51.0062C77.316 51.2036 77.1246 51.3446 76.9776 51.4529C76.9117 51.5015 76.8547 51.5434 76.8028 51.581L76.8027 51.5809L76.7973 51.585C75.6125 52.4661 75.184 52.7553 74.6058 52.7553C74.0277 52.7553 73.6078 52.4672 72.4152 51.5843L72.4125 51.5824C72.3801 51.5587 72.3468 51.5343 72.3115 51.5085C72.1538 51.393 71.9564 51.2485 71.6185 51.0075C69.4782 49.4522 67.0793 47.5847 65.0589 45.5431L65.0581 45.5423C62.9766 43.4485 61.3284 41.2068 60.6915 38.9686L80.121 28.0079Z" fill="#EF6969" stroke="#5E5956"/>
</g>
<path d="M47.6436 105.527C47.5524 105.527 47.4544 105.518 47.3496 105.5C47.2448 105.482 47.1286 105.454 47.001 105.418V104.529C47.1742 104.557 47.3587 104.57 47.5547 104.57C47.8828 104.57 48.1312 104.463 48.2998 104.249C48.4684 104.035 48.5527 103.704 48.5527 103.258V97.5908C48.3887 97.5999 48.2246 97.6113 48.0605 97.625C47.8965 97.6387 47.7324 97.6501 47.5684 97.6592V96.7021C48.0286 96.6657 48.4548 96.6361 48.8467 96.6133C49.2386 96.5859 49.5986 96.5677 49.9268 96.5586C50.2549 96.5449 50.5511 96.5381 50.8154 96.5381C51.2347 96.5381 51.5856 96.5495 51.8682 96.5723C52.1507 96.5951 52.3945 96.6338 52.5996 96.6885C52.8092 96.7432 53.0098 96.8138 53.2012 96.9004C53.4655 97.0234 53.682 97.1738 53.8506 97.3516C54.0238 97.5293 54.1628 97.7594 54.2676 98.042C54.3268 98.2015 54.3701 98.3792 54.3975 98.5752C54.4248 98.7666 54.4385 98.9762 54.4385 99.2041V105.5H53.29V99.2314C53.29 98.6891 53.1647 98.2904 52.9141 98.0352C52.6634 97.7754 52.292 97.6113 51.7998 97.543C51.5902 97.5065 51.3076 97.4883 50.9521 97.4883C50.7835 97.4883 50.5944 97.4928 50.3848 97.502C50.1797 97.5065 49.9541 97.5156 49.708 97.5293V103.258C49.708 103.508 49.6898 103.739 49.6533 103.948C49.6214 104.158 49.5645 104.349 49.4824 104.522C49.3639 104.787 49.2044 104.996 49.0039 105.151C48.8398 105.279 48.6439 105.375 48.416 105.438C48.1927 105.498 47.9352 105.527 47.6436 105.527ZM56.8105 105.5V96.6748H57.959V105.5H56.8105ZM59.7363 105.5V104.563H64.0293V99.2314C64.0293 98.6937 63.9062 98.2972 63.6602 98.042C63.4141 97.7868 63.0518 97.625 62.5732 97.5566C62.4593 97.5339 62.3294 97.5179 62.1836 97.5088C62.0378 97.4951 61.8714 97.4883 61.6846 97.4883C61.4704 97.4883 61.2038 97.4974 60.8848 97.5156C60.5658 97.5293 60.1807 97.5521 59.7295 97.584V96.6338C60.0667 96.6019 60.3994 96.5791 60.7275 96.5654C61.0602 96.5472 61.3906 96.5381 61.7188 96.5381C62.1745 96.5381 62.555 96.5586 62.8604 96.5996C63.1702 96.6361 63.4642 96.7044 63.7422 96.8047C64.0247 96.9095 64.2594 97.0439 64.4463 97.208C64.6331 97.3721 64.7835 97.5817 64.8975 97.8369C64.9704 97.96 65.0273 98.0921 65.0684 98.2334C65.1094 98.3747 65.139 98.5251 65.1572 98.6846C65.1755 98.8441 65.1846 99.0173 65.1846 99.2041V104.563H66.1963V105.5H59.7363ZM70.7217 105.5V99.3818C70.7217 99.1357 70.7513 98.9102 70.8105 98.7051C70.8698 98.4954 70.9427 98.3268 71.0293 98.1992C71.125 98.0534 71.2161 97.9372 71.3027 97.8506C71.3893 97.7594 71.4919 97.6797 71.6104 97.6113H66.7979V96.6748H73.2646V97.5156C73.0368 97.5977 72.8271 97.6956 72.6357 97.8096C72.4443 97.9235 72.2917 98.0671 72.1777 98.2402C71.9772 98.5228 71.877 98.9079 71.877 99.3955V105.5H70.7217ZM74.3652 105.5V104.563H77.2363C77.291 104.313 77.3298 104.067 77.3525 103.825C77.3799 103.584 77.3936 103.344 77.3936 103.107V98.7734C77.3936 98.5547 77.3662 98.3587 77.3115 98.1855C77.2568 98.0078 77.1748 97.862 77.0654 97.748C76.9788 97.6706 76.8786 97.609 76.7646 97.5635C76.6553 97.5179 76.5277 97.4951 76.3818 97.4951C76.1995 97.4951 76.0127 97.5065 75.8213 97.5293C75.6299 97.5475 75.4316 97.5749 75.2266 97.6113V96.6406C75.3997 96.6042 75.5866 96.5791 75.7871 96.5654C75.9922 96.5472 76.2132 96.5381 76.4502 96.5381C76.7145 96.5381 76.9447 96.5632 77.1406 96.6133C77.3366 96.6634 77.5075 96.734 77.6533 96.8252C77.79 96.9118 77.9085 97.0189 78.0088 97.1465C78.1136 97.2741 78.2002 97.4108 78.2686 97.5566C78.3597 97.7161 78.4281 97.8984 78.4736 98.1035C78.5238 98.3086 78.5488 98.5319 78.5488 98.7734V103.107C78.5488 103.335 78.5374 103.579 78.5146 103.839C78.4919 104.094 78.4645 104.34 78.4326 104.577C78.4007 104.81 78.3688 105.001 78.3369 105.151L78.2754 105.5H74.3652ZM80.5107 105.527C80.4196 105.527 80.3216 105.518 80.2168 105.5C80.112 105.482 79.9958 105.454 79.8682 105.418V104.529C80.0413 104.557 80.2259 104.57 80.4219 104.57C80.75 104.57 80.9984 104.463 81.167 104.249C81.3356 104.035 81.4199 103.704 81.4199 103.258V97.5908C81.2559 97.5999 81.0918 97.6113 80.9277 97.625C80.7637 97.6387 80.5996 97.6501 80.4355 97.6592V96.7021C80.8958 96.6657 81.3219 96.6361 81.7139 96.6133C82.1058 96.5859 82.4658 96.5677 82.7939 96.5586C83.1221 96.5449 83.4183 96.5381 83.6826 96.5381C84.1019 96.5381 84.4528 96.5495 84.7354 96.5723C85.0179 96.5951 85.2617 96.6338 85.4668 96.6885C85.6764 96.7432 85.877 96.8138 86.0684 96.9004C86.3327 97.0234 86.5492 97.1738 86.7178 97.3516C86.891 97.5293 87.0299 97.7594 87.1348 98.042C87.194 98.2015 87.2373 98.3792 87.2646 98.5752C87.292 98.7666 87.3057 98.9762 87.3057 99.2041V105.5H86.1572V99.2314C86.1572 98.6891 86.0319 98.2904 85.7812 98.0352C85.5306 97.7754 85.1592 97.6113 84.667 97.543C84.4574 97.5065 84.1748 97.4883 83.8193 97.4883C83.6507 97.4883 83.4616 97.4928 83.252 97.502C83.0469 97.5065 82.8213 97.5156 82.5752 97.5293V103.258C82.5752 103.508 82.557 103.739 82.5205 103.948C82.4886 104.158 82.4316 104.349 82.3496 104.522C82.2311 104.787 82.0716 104.996 81.8711 105.151C81.707 105.279 81.5111 105.375 81.2832 105.438C81.0599 105.498 80.8024 105.527 80.5107 105.527ZM94.9824 105.5V99.2314C94.9824 98.6982 94.8617 98.304 94.6201 98.0488C94.3831 97.7936 94.0254 97.6318 93.5469 97.5635C93.4375 97.5407 93.2962 97.5225 93.123 97.5088C92.9544 97.4951 92.7607 97.4883 92.542 97.4883C92.2549 97.4883 91.8766 97.502 91.4072 97.5293C90.9424 97.5566 90.3659 97.5999 89.6777 97.6592V96.7021C89.8919 96.6794 90.1016 96.6611 90.3066 96.6475C90.5117 96.6338 90.71 96.6201 90.9014 96.6064C91.266 96.5837 91.5918 96.5677 91.8789 96.5586C92.1706 96.5449 92.4258 96.5381 92.6445 96.5381C93.1595 96.5381 93.5765 96.5609 93.8955 96.6064C94.2191 96.652 94.5221 96.734 94.8047 96.8525C95.0872 96.971 95.3219 97.1214 95.5088 97.3037C95.6956 97.486 95.8438 97.7207 95.9531 98.0078C96.0215 98.1901 96.0693 98.3792 96.0967 98.5752C96.1286 98.7712 96.1445 98.9899 96.1445 99.2314V105.5H94.9824ZM89.6777 105.5V100.038H90.8262V105.5H89.6777Z" fill="#0D3C70"/>
</g>
<defs>
<filter id="filter0_d_689_5120" x="0" y="0" width="144" height="144" filterUnits="userSpaceOnUse" color-interpolation-filters="sRGB">
<feFlood flood-opacity="0" result="BackgroundImageFix"/>
<feColorMatrix in="SourceAlpha" type="matrix" values="0 0 0 0 0 0 0 0 0 0 0 0 0 0 0 0 0 0 127 0" result="hardAlpha"/>
<feOffset dy="4"/>
<feGaussianBlur stdDeviation="3.5"/>
<feColorMatrix type="matrix" values="0 0 0 0 0.0201562 0 0 0 0 0.265822 0 0 0 0 0.5375 0 0 0 1 0"/>
<feBlend mode="normal" in2="BackgroundImageFix" result="effect1_dropShadow_689_5120"/>
<feBlend mode="normal" in="SourceGraphic" in2="effect1_dropShadow_689_5120" result="shape"/>
</filter>
<clipPath id="clip0_689_5120">
<rect width="67" height="53" fill="white" transform="translate(38.5 26.5)"/>
</clipPath>
</defs>
</svg>
