<svg width="97" height="117" viewBox="0 0 97 117" fill="none" xmlns="http://www.w3.org/2000/svg">
<path opacity="0.08" fill-rule="evenodd" clip-rule="evenodd" d="M81.2905 112.266C81.2905 114.62 66.5086 116.532 48.2731 116.532C30.0373 116.532 15.2539 114.62 15.2539 112.266C15.2539 109.909 30.0373 107.999 48.2731 107.999C66.5086 107.999 81.2905 109.909 81.2905 112.266Z" fill="#313131"/>
<path fill-rule="evenodd" clip-rule="evenodd" d="M83.6213 62.3866C83.011 62.1207 82.9496 60.8469 83.3516 60.0012C83.6349 59.4053 84.2904 58.7231 84.7849 58.8755C85.2675 59.0244 85.3738 59.8996 85.4099 60.1972C85.4494 60.5227 85.518 61.0876 85.1725 61.6157C84.831 62.1379 84.1027 62.5964 83.6213 62.3866Z" fill="#69D7C7"/>
<mask id="mask0_799_12928" style="mask-type:luminance" maskUnits="userSpaceOnUse" x="86" y="59" width="4" height="5">
<path fill-rule="evenodd" clip-rule="evenodd" d="M86.04 62.4404L88.0167 63.6281L89.9231 60.4552L87.9465 59.2675L86.04 62.4404Z" fill="white"/>
</mask>
<g mask="url(#mask0_799_12928)">
<path fill-rule="evenodd" clip-rule="evenodd" d="M86.9079 62.9586C86.3736 62.5615 86.6019 61.307 87.1848 60.574C87.5956 60.0576 88.3884 59.5414 88.8356 59.8018C89.2721 60.056 89.1776 60.9325 89.1454 61.2306C89.1102 61.5566 89.0492 62.1223 88.5933 62.5586C88.1426 62.99 87.3295 63.2719 86.9079 62.9586Z" fill="#69D7C7"/>
</g>
<path fill-rule="evenodd" clip-rule="evenodd" d="M89.119 64.3829C88.9674 63.7346 89.9518 62.9242 90.8701 62.7408C91.5172 62.6117 92.456 62.7295 92.6293 63.2171C92.7984 63.693 92.1604 64.3013 91.9433 64.5081C91.706 64.7344 91.294 65.127 90.6642 65.1658C90.0414 65.2041 89.2386 64.8943 89.119 64.3829Z" fill="#69D7C7"/>
<path fill-rule="evenodd" clip-rule="evenodd" d="M90.4006 67.4086C90.496 66.7497 91.7083 66.3544 92.6302 66.5189C93.2799 66.6349 94.1108 67.0871 94.0942 67.6044C94.078 68.1092 93.2619 68.4426 92.9843 68.5561C92.6809 68.68 92.1539 68.8952 91.5535 68.7014C90.9596 68.5097 90.3253 67.9283 90.4006 67.4086Z" fill="#69D7C7"/>
<path fill-rule="evenodd" clip-rule="evenodd" d="M66.4255 81.9516C66.7036 82.4422 67.75 82.7818 76.3151 80.3723C84.2267 78.1467 86.226 77.0434 87.9801 75.6022C90.4833 73.546 91.2675 71.8041 91.5504 71.0775C91.7723 70.5076 92.9671 67.3198 91.3669 64.2972C91.139 63.8666 90.5337 62.7545 89.2614 61.8967C86.9137 60.3136 84.2586 60.9202 83.65 61.0794C82.8639 61.2853 82.2796 61.5737 81.9598 61.7669C78.8448 63.6486 76.6345 67.6892 73.5043 71.5876C72.3808 72.9869 70.3394 75.3632 67.679 79.1568C66.6204 80.6664 66.1363 81.4414 66.4255 81.9516Z" fill="#30BDA9"/>
<path fill-rule="evenodd" clip-rule="evenodd" d="M13.4357 62.2947C14.0549 62.0502 14.1607 60.7794 13.7885 59.9202C13.5261 59.3148 12.8949 58.61 12.3953 58.7452C11.9078 58.8771 11.771 59.748 11.7246 60.0442C11.6738 60.3681 11.5854 60.9303 11.9123 61.4701C12.2354 62.0039 12.9472 62.4876 13.4357 62.2947Z" fill="#69D7C7"/>
<mask id="mask1_799_12928" style="mask-type:luminance" maskUnits="userSpaceOnUse" x="7" y="59" width="5" height="5">
<path fill-rule="evenodd" clip-rule="evenodd" d="M11.0166 62.2637L8.99972 63.3816L7.20515 60.1442L9.22203 59.0262L11.0166 62.2637Z" fill="white"/>
</mask>
<g mask="url(#mask1_799_12928)">
<path fill-rule="evenodd" clip-rule="evenodd" d="M10.1312 62.7512C10.679 62.373 10.4947 61.1113 9.93763 60.3585C9.54513 59.828 8.77087 59.2845 8.31482 59.5291C7.86972 59.7679 7.93357 60.6471 7.95537 60.9462C7.97911 61.2732 8.02039 61.8408 8.46077 62.2927C8.89618 62.7395 9.69893 63.0496 10.1312 62.7512Z" fill="#69D7C7"/>
</g>
<path fill-rule="evenodd" clip-rule="evenodd" d="M7.8716 64.0978C8.04573 63.4552 7.09019 62.6109 6.17886 62.3956C5.53662 62.244 4.59437 62.3289 4.40415 62.8102C4.21849 63.2799 4.8349 63.9101 5.04462 64.1244C5.27388 64.3588 5.6719 64.7655 6.29997 64.8262C6.92104 64.8863 7.73422 64.6047 7.8716 64.0978Z" fill="#69D7C7"/>
<path fill-rule="evenodd" clip-rule="evenodd" d="M6.48524 67.0771C6.41289 66.4153 5.2151 65.9778 4.28805 66.1101C3.6347 66.2034 2.78851 66.6263 2.78702 67.1438C2.78557 67.6488 3.58952 68.0106 3.86301 68.1336C4.16193 68.2681 4.68107 68.5015 5.28786 68.3288C5.8881 68.158 6.54237 67.5991 6.48524 67.0771Z" fill="#69D7C7"/>
<path fill-rule="evenodd" clip-rule="evenodd" d="M29.9381 82.4478C29.643 82.9283 28.5854 83.2312 20.1096 80.5243C12.2805 78.0239 10.3209 76.8515 8.61814 75.35C6.18826 73.2076 5.46536 71.4395 5.20794 70.7034C5.00605 70.1262 3.92323 66.8986 5.62795 63.9336C5.87076 63.5113 6.51452 62.421 7.816 61.6081C10.2175 60.1079 12.8498 60.8068 13.4524 60.9872C14.2309 61.2203 14.8048 61.529 15.1177 61.7332C18.1651 63.7225 20.233 67.8378 23.2253 71.843C24.2993 73.2807 26.2565 75.7268 28.7829 79.611C29.7881 81.1566 30.2449 81.948 29.9381 82.4478Z" fill="#30BDA9"/>
<path fill-rule="evenodd" clip-rule="evenodd" d="M63.0068 109.34C61.9429 107.351 58.1925 106.973 56.1078 106.765C55.7199 106.726 55.2784 106.702 55.13 106.689V90.6742C54.9816 90.5841 54.6373 90.2075 54.0482 90.1593C53.3055 90.0986 52.794 90.6107 52.7347 90.6753C52.6242 96.5936 52.5004 102.512 52.3899 108.431C52.3838 108.536 52.3761 108.636 52.3779 108.728C52.3758 108.832 52.3706 108.936 52.3687 109.04C52.3779 109.065 52.3871 109.09 52.3977 109.115C52.4031 109.162 52.4069 109.195 52.4092 109.211C52.4501 109.487 52.5181 109.948 52.8379 110.369C53.5635 111.326 54.9478 111.24 55.1119 111.227C58.2931 111.42 60.3871 111.272 61.548 111.142C62.0843 111.081 62.9419 110.961 63.1785 110.412C63.3545 110.004 63.1111 109.534 63.0068 109.34Z" fill="#30BDA9"/>
<path fill-rule="evenodd" clip-rule="evenodd" d="M44.0762 90.7887C44.0864 93.2168 44.0998 96.6456 44.1084 99.0738C44.1164 101.402 44.1271 104.816 44.1333 107.144C44.1327 107.149 44.132 107.154 44.1314 107.159C44.1441 107.422 44.1631 107.826 44.1835 108.324C44.2142 109.079 44.2213 109.392 44.1262 109.812C44.1262 109.812 44.0621 110.095 43.9689 110.326C43.3949 111.753 37.513 111.37 34.9581 110.97C34.542 110.905 33.7158 110.761 33.399 110.155C33.2608 109.756 33.2611 109.432 33.3275 109.168C33.7393 107.526 37.0861 106.636 41.6089 106.765C41.6374 101.43 41.666 96.0951 41.6947 90.7601C42.109 90.2858 42.7186 90.0716 43.268 90.2166C43.7237 90.3368 43.9859 90.6637 44.0762 90.7887Z" fill="#30BDA9"/>
<mask id="mask2_799_12928" style="mask-type:luminance" maskUnits="userSpaceOnUse" x="32" y="90" width="12" height="22">
<path fill-rule="evenodd" clip-rule="evenodd" d="M32.5312 90.1719H43.451V111.337H32.5312V90.1719Z" fill="white"/>
</mask>
<g mask="url(#mask2_799_12928)">
</g>
<path fill-rule="evenodd" clip-rule="evenodd" d="M76.8567 64.7265C78.0497 50.1095 71.6587 37.3238 62.466 30.6669L60.4444 29.3342C56.6651 27.0627 52.5071 25.7856 48.2607 25.7856C42.9797 25.7856 37.8665 27.7497 33.4418 31.1501L31.7568 32.5394C23.8763 39.5623 18.6723 51.3784 19.6651 64.7265C19.9549 68.6183 22.1643 75.9419 22.1643 75.9419L24.9069 82.054C27.927 87.7509 35.7716 96.3654 35.7716 96.3654L37.5135 97.9428C41.7359 101.569 45.7343 103.668 48.2607 103.668C51.2367 103.668 55.7538 101.428 60.3311 97.4039L61.7379 96.1059C61.7379 96.1059 69.962 86.7142 72.8587 80.2055L74.7416 75.2943C74.7416 75.2943 76.5516 68.453 76.8567 64.7265Z" fill="#69D7C7"/>
<mask id="mask3_799_12928" style="mask-type:luminance" maskUnits="userSpaceOnUse" x="19" y="25" width="58" height="79">
<path fill-rule="evenodd" clip-rule="evenodd" d="M76.8567 64.7265C78.0497 50.1095 71.6587 37.3238 62.466 30.6669L60.4444 29.3342C56.6651 27.0627 52.5071 25.7856 48.2607 25.7856C42.9797 25.7856 37.8665 27.7497 33.4418 31.1501L31.7568 32.5394C23.8763 39.5623 18.6723 51.3784 19.6651 64.7265C19.9549 68.6183 22.1643 75.9419 22.1643 75.9419L24.9069 82.054C27.927 87.7509 35.7716 96.3654 35.7716 96.3654L37.5135 97.9428C41.7359 101.569 45.7343 103.668 48.2607 103.668C51.2367 103.668 55.7538 101.428 60.3311 97.4039L61.7379 96.1059C61.7379 96.1059 69.962 86.7142 72.8587 80.2055L74.7416 75.2943C74.7416 75.2943 76.5516 68.453 76.8567 64.7265Z" fill="white"/>
</mask>
<g mask="url(#mask3_799_12928)">
</g>
<path fill-rule="evenodd" clip-rule="evenodd" d="M58.8902 46.3218C62.6777 46.6898 67.0527 50.154 67.5889 56.7931V59.0042C67.0918 65.3611 62.2936 73.1977 48.269 83.0314C34.2523 73.1977 29.4522 65.3611 28.9551 59.0042V56.7931C29.4859 50.154 33.8663 46.6898 37.6498 46.3218C38.2684 46.2604 38.8529 46.229 39.3968 46.229C43.7695 46.229 45.8678 49.5998 48.269 52.4611C50.6709 49.5998 52.7712 46.229 57.1419 46.229C57.6854 46.229 58.2699 46.2604 58.8902 46.3218Z" fill="white"/>
<path fill-rule="evenodd" clip-rule="evenodd" d="M52.3829 59.5338C52.3829 60.3625 51.7109 61.0349 50.8841 61.0349C50.0557 61.0349 49.3804 60.3625 49.3804 59.5338C49.3804 58.7048 50.0557 58.0312 50.8841 58.0312C51.7109 58.0312 52.3829 58.7048 52.3829 59.5338Z" fill="white"/>
<path fill-rule="evenodd" clip-rule="evenodd" d="M48.4208 28.2079C47.887 27.5249 47.0407 26.598 45.8008 25.803C43.4532 24.2976 41.3561 24.33 41.3781 23.8988C41.3989 23.493 43.2853 22.8994 44.9695 23.5096C46.8267 24.1825 47.5374 25.9926 47.6624 26.3287C47.7315 26.5142 47.3255 25.1896 47.193 23.6665C47.1644 23.337 46.9239 20.2391 48.2842 19.6046C48.7692 19.3784 49.4538 19.467 49.6935 19.8136C49.9753 20.2212 49.588 20.9084 49.3383 21.4316C48.9042 22.3415 48.4421 23.6887 48.3272 25.6015C48.5054 25.2028 48.8808 24.508 49.615 23.9104C49.7826 23.774 51.0657 22.7626 52.855 22.9121C53.9461 23.0034 55.1982 23.5241 55.1759 23.9669C55.1591 24.2985 54.431 24.5148 53.8395 24.6905C52.3768 25.1251 51.6693 24.8804 50.9198 25.0834C50.1884 25.2813 49.2282 25.9566 48.4208 28.2079Z" fill="#69D7C7"/>
<path fill-rule="evenodd" clip-rule="evenodd" d="M40.9793 35.2473C40.6644 32.2817 39.8202 28.4057 37.633 24.4078C36.8801 23.0317 36.0702 21.8275 35.2683 20.7843C35.5211 20.4936 33.1645 21.8369 33.6243 21.7109C34.9234 23.2403 36.7905 25.8275 38.0182 29.4693C38.7939 31.7703 39.1016 33.8613 39.2062 35.5281L40.9793 35.2473Z" fill="#69D7C7"/>
<path fill-rule="evenodd" clip-rule="evenodd" d="M31.1712 12.4215C32.0562 11.8803 33.5771 11.9167 34.783 13.2742L35.1458 13.7556C36.0804 15.2211 36.3215 17.7145 34.8814 22.1563C30.2165 22.3149 27.8857 21.3963 26.7346 20.0939L26.3718 19.6125C25.3982 18.0799 25.7835 16.6071 26.5469 15.9062C26.6715 15.7914 26.7936 15.6887 26.912 15.5994C27.864 14.882 28.8738 15.2717 29.8661 15.5007C29.9196 14.4837 29.8238 13.4052 30.7754 12.6882C30.8937 12.599 31.0261 12.5099 31.1712 12.4215Z" fill="#69D7C7"/>
<path fill-rule="evenodd" clip-rule="evenodd" d="M65.6815 11.6005C64.761 11.1224 63.2466 11.2648 62.1383 12.703L61.8101 13.2084C60.98 14.7354 60.9135 17.2392 62.6597 21.5694C67.3239 21.4022 69.5846 20.3233 70.642 18.9439L70.9702 18.4385C71.8345 16.8419 71.3474 15.3997 70.5371 14.7538C70.4048 14.648 70.2759 14.554 70.1516 14.4733C69.1519 13.8241 68.1718 14.2832 67.1981 14.5808C67.0738 13.5701 67.0941 12.4877 66.0949 11.8389C65.9707 11.7582 65.8324 11.6786 65.6815 11.6005Z" fill="#69D7C7"/>
<path fill-rule="evenodd" clip-rule="evenodd" d="M62.7661 19.4132C62.039 20.5097 61.315 21.7676 60.66 23.1928C58.5666 27.7477 58.0839 32.0423 58.0587 35.1048L59.8883 35.2649C59.8104 33.4866 59.9036 31.0467 60.6288 28.2689C61.5994 24.5502 63.2815 21.8392 64.4708 20.2229" fill="#69D7C7"/>
<path fill-rule="evenodd" clip-rule="evenodd" d="M43.4286 65.0705C43.2792 65.0705 43.1288 65.0307 42.9913 64.9469C42.5958 64.7051 42.4701 64.1883 42.7119 63.7929C42.8043 63.6403 45.0188 60.0666 48.3992 59.9247C50.502 59.8549 52.4984 61.0701 54.3433 63.593C54.6183 63.968 54.5367 64.4935 54.1617 64.7675C53.7867 65.0425 53.2591 64.9609 52.9862 64.5859C51.4948 62.5476 49.9722 61.5472 48.4765 61.6052C45.9966 61.7052 44.1668 64.6396 44.1474 64.6686C43.9884 64.9276 43.7122 65.0705 43.4286 65.0705Z" fill="#313131"/>
<path d="M43.4286 65.0705C43.2792 65.0705 43.1288 65.0307 42.9913 64.9469C42.5958 64.7051 42.4701 64.1883 42.7119 63.7929C42.8043 63.6403 45.0188 60.0666 48.3992 59.9247C50.502 59.8549 52.4984 61.0701 54.3433 63.593C54.6183 63.968 54.5367 64.4935 54.1617 64.7675C53.7867 65.0425 53.2591 64.9609 52.9862 64.5859C51.4948 62.5476 49.9722 61.5472 48.4765 61.6052C45.9966 61.7052 44.1668 64.6396 44.1474 64.6686C43.9884 64.9276 43.7122 65.0705 43.4286 65.0705" stroke="white"/>
</svg>
