<svg width="77" height="109" viewBox="0 0 77 109" fill="none" xmlns="http://www.w3.org/2000/svg">
<path opacity="0.08" fill-rule="evenodd" clip-rule="evenodd" d="M73.6855 104.013C73.6855 106.393 58.7439 108.326 40.3115 108.326C21.8787 108.326 6.93555 106.393 6.93555 104.013C6.93555 101.631 21.8787 99.7007 40.3115 99.7007C58.7439 99.7007 73.6855 101.631 73.6855 104.013Z" fill="black"/>
<path fill-rule="evenodd" clip-rule="evenodd" d="M3.86975 82.4521C3.34373 82.0325 2.17655 82.5795 1.61084 83.3383C1.21225 83.8731 0.912358 84.7812 1.28229 85.151C1.64335 85.5119 2.4756 85.1933 2.75855 85.0849C3.06806 84.9664 3.60531 84.7608 3.91391 84.2025C4.21914 83.6506 4.2847 82.7832 3.86975 82.4521Z" fill="#69D7C7"/>
<mask id="mask0_799_12937" style="mask-type:luminance" maskUnits="userSpaceOnUse" x="3" y="84" width="5" height="5">
<path fill-rule="evenodd" clip-rule="evenodd" d="M5.06055 84.5879L7.05584 85.7929L5.1216 88.9957L3.12631 87.7907L5.06055 84.5879Z" fill="white"/>
</mask>
<g mask="url(#mask0_799_12937)">
<path fill-rule="evenodd" clip-rule="evenodd" d="M5.93366 85.1185C5.32635 84.8287 4.31323 85.6255 3.93379 86.4928C3.66648 87.1038 3.57984 88.0561 4.02384 88.3327C4.45722 88.6026 5.19576 88.104 5.44687 87.9344C5.72156 87.7489 6.19827 87.427 6.37268 86.8135C6.54515 86.2069 6.41283 85.3472 5.93366 85.1185Z" fill="#69D7C7"/>
</g>
<path fill-rule="evenodd" clip-rule="evenodd" d="M8.25087 86.4214C7.59997 86.5923 7.34094 87.8549 7.61103 88.7621C7.80149 89.4013 8.3503 90.1844 8.86787 90.1089C9.37303 90.0352 9.61509 89.1776 9.69737 88.8859C9.78741 88.5669 9.94354 88.0133 9.68056 87.4322C9.42051 86.8576 8.76434 86.2866 8.25087 86.4214Z" fill="#69D7C7"/>
<path fill-rule="evenodd" clip-rule="evenodd" d="M11.5602 86.1368C11.0165 86.5334 11.2361 87.8035 11.8188 88.5495C12.2294 89.0752 13.0261 89.604 13.4805 89.3447C13.9239 89.0918 13.8362 88.205 13.8064 87.9033C13.7738 87.5736 13.717 87.0011 13.2602 86.5561C12.8082 86.116 11.9889 85.8239 11.5602 86.1368Z" fill="#69D7C7"/>
<path fill-rule="evenodd" clip-rule="evenodd" d="M13.226 57.8418C13.7957 57.8585 14.5937 58.633 16.4881 67.4249C18.2379 75.546 18.1967 77.8538 17.7379 80.1022C17.0834 83.3106 15.8975 84.8344 15.382 85.4305C14.9776 85.8981 12.6938 88.4721 9.23672 88.4706C8.74428 88.4704 7.46455 88.455 6.09679 87.7235C3.57291 86.3738 2.86028 83.7147 2.715 83.0957C2.52742 82.296 2.509 81.6375 2.53056 81.2605C2.73998 77.5879 5.30602 73.7035 7.3102 69.0644C8.02966 67.3993 9.18841 64.4523 11.321 60.2825C12.1697 58.6232 12.6334 57.8245 13.226 57.8418Z" fill="#30BDA9"/>
<path fill-rule="evenodd" clip-rule="evenodd" d="M55.2042 101.056C54.1289 99.0459 50.3379 98.6631 48.2307 98.4531C47.8386 98.4143 47.3924 98.3894 47.2424 98.3768V82.1886C47.0924 82.0976 46.7444 81.7169 46.1489 81.6681C45.3981 81.6068 44.8811 82.1244 44.8212 82.1897C44.7095 88.172 44.5844 94.1546 44.4726 100.137C44.4665 100.244 44.4587 100.345 44.4605 100.437C44.4584 100.542 44.4531 100.647 44.4512 100.752C44.4605 100.778 44.4698 100.803 44.4806 100.828C44.486 100.876 44.4899 100.91 44.4921 100.925C44.5335 101.204 44.6022 101.67 44.9255 102.096C45.659 103.064 47.0582 102.977 47.2241 102.964C50.4396 103.159 52.5563 103.009 53.7297 102.877C54.2718 102.816 55.1387 102.695 55.3778 102.14C55.5557 101.727 55.3097 101.252 55.2042 101.056Z" fill="#30BDA9"/>
<path fill-rule="evenodd" clip-rule="evenodd" d="M36.0692 82.3041C36.0796 84.7584 36.0931 88.2243 36.1018 90.6788C36.1099 93.0324 36.1207 96.4826 36.127 98.8362C36.1264 98.8412 36.1256 98.8461 36.125 98.8511C36.1379 99.1172 36.1571 99.5252 36.1777 100.029C36.2087 100.792 36.2159 101.108 36.1198 101.532C36.1198 101.532 36.055 101.819 35.9608 102.053C35.3806 103.495 29.4352 103.108 26.8526 102.704C26.432 102.638 25.597 102.492 25.2767 101.879C25.1371 101.477 25.1374 101.149 25.2044 100.882C25.6207 99.2226 29.0036 98.3223 33.5753 98.453C33.6041 93.0603 33.6331 87.6678 33.662 82.2752C34.0808 81.7958 34.697 81.5793 35.2523 81.7259C35.713 81.8474 35.978 82.1778 36.0692 82.3041Z" fill="#30BDA9"/>
<mask id="mask1_799_12937" style="mask-type:luminance" maskUnits="userSpaceOnUse" x="24" y="81" width="12" height="23">
<path fill-rule="evenodd" clip-rule="evenodd" d="M24.3999 81.6807H35.4376V103.074H24.3999V81.6807Z" fill="white"/>
</mask>
<g mask="url(#mask1_799_12937)">
</g>
<path fill-rule="evenodd" clip-rule="evenodd" d="M69.2044 55.9606C70.4102 41.1858 63.9502 28.2619 54.6582 21.5332L52.6147 20.186C48.7947 17.89 44.5917 16.5991 40.2995 16.5991C34.9614 16.5991 29.793 18.5844 25.3205 22.0215L23.6172 23.4258C15.6516 30.5246 10.3914 42.4683 11.395 55.9606C11.6879 59.8945 13.9211 67.2972 13.9211 67.2972L16.6934 73.4753C19.7461 79.2337 27.6754 87.9413 27.6754 87.9413L29.4361 89.5357C33.7041 93.2008 37.7457 95.3233 40.2995 95.3233C43.3076 95.3233 47.8735 93.0591 52.5002 88.991L53.9222 87.679C53.9222 87.679 62.2352 78.1859 65.1632 71.6068L67.0664 66.6425C67.0664 66.6425 68.8959 59.7274 69.2044 55.9606Z" fill="#69D7C7"/>
<mask id="mask2_799_12937" style="mask-type:luminance" maskUnits="userSpaceOnUse" x="11" y="16" width="59" height="80">
<path fill-rule="evenodd" clip-rule="evenodd" d="M69.2044 55.9606C70.4102 41.1858 63.9502 28.2619 54.6582 21.5332L52.6147 20.186C48.7947 17.89 44.5917 16.5991 40.2995 16.5991C34.9614 16.5991 29.793 18.5844 25.3205 22.0215L23.6172 23.4258C15.6516 30.5246 10.3914 42.4683 11.395 55.9606C11.6879 59.8945 13.9211 67.2972 13.9211 67.2972L16.6934 73.4753C19.7461 79.2337 27.6754 87.9413 27.6754 87.9413L29.4361 89.5357C33.7041 93.2008 37.7457 95.3233 40.2995 95.3233C43.3076 95.3233 47.8735 93.0591 52.5002 88.991L53.9222 87.679C53.9222 87.679 62.2352 78.1859 65.1632 71.6068L67.0664 66.6425C67.0664 66.6425 68.8959 59.7274 69.2044 55.9606Z" fill="white"/>
</mask>
<g mask="url(#mask2_799_12937)">
<path fill-rule="evenodd" clip-rule="evenodd" d="M41.5883 35.9932C44.5001 35.635 46.7127 33.1895 49.6937 33.1501C52.6204 33.1112 55.1734 34.3723 57.3943 36.194C57.6444 36.3992 58.0049 36.0428 57.7526 35.8358C55.4269 33.9281 52.7599 32.6028 49.6937 32.6434C46.5679 32.6848 44.0001 35.0005 41.23 35.635C40.9733 35.8354 41.3341 36.1916 41.5883 35.9932Z" fill="#171F20"/>
<path fill-rule="evenodd" clip-rule="evenodd" d="M40.9052 36.8862C40.8287 36.7313 40.6464 36.666 40.5059 36.5815C40.2326 36.4171 39.9315 36.2571 39.7029 36.0313C39.6362 35.9654 39.4886 36.0084 39.5007 36.115C39.5369 36.4315 39.6843 36.7103 39.9055 36.9389C40.1128 37.1531 40.5256 37.4948 40.8286 37.2703C40.9574 37.1748 40.9739 37.0252 40.9052 36.8862Z" fill="#171F20"/>
</g>
<path fill-rule="evenodd" clip-rule="evenodd" d="M51.0436 37.3569C54.872 37.7289 59.2943 41.2306 59.8363 47.9414V50.1764C59.3338 56.6019 54.4839 64.5232 40.3077 74.4632C26.1396 64.5232 21.2877 56.6019 20.7852 50.1764V47.9414C21.3217 41.2306 25.7494 37.7289 29.5738 37.3569C30.1991 37.2949 30.7899 37.2632 31.3396 37.2632C35.7596 37.2632 37.8805 40.6704 40.3077 43.5626C42.7355 40.6704 44.8585 37.2632 49.2764 37.2632C49.8258 37.2632 50.4167 37.2949 51.0436 37.3569Z" fill="white"/>
<path fill-rule="evenodd" clip-rule="evenodd" d="M34.3933 57.4552C35.2467 59.6621 37.3693 61.4945 40.0317 61.6189C42.2613 61.723 44.5861 60.616 45.7569 58.496C47.1183 56.0309 46.44 53.0638 44.8027 51.2963C42.3277 48.6247 37.552 48.5761 35.2608 51.2096C33.7288 52.9703 33.6508 55.5352 34.3933 57.4552Z" fill="#69D7C7"/>
<path fill-rule="evenodd" clip-rule="evenodd" d="M39.2075 53.6816C40.0348 53.3601 40.8247 53.7713 40.9856 53.855C41.9294 54.3462 42.8491 55.622 42.3736 56.7609C41.8853 57.9309 40.2518 58.1745 39.2075 57.7586C39.064 57.7014 38.3176 57.4041 37.993 56.6309C37.5434 55.5599 38.1239 54.1026 39.2075 53.6816Z" fill="#000100"/>
<path fill-rule="evenodd" clip-rule="evenodd" d="M44.4661 50.7122C44.4661 51.5498 43.7868 52.2295 42.9511 52.2295C42.1138 52.2295 41.4312 51.5498 41.4312 50.7122C41.4312 49.8741 42.1138 49.1934 42.9511 49.1934C43.7868 49.1934 44.4661 49.8741 44.4661 50.7122Z" fill="white"/>
<path fill-rule="evenodd" clip-rule="evenodd" d="M40.4607 19.0474C39.9211 18.357 39.0656 17.4201 37.8124 16.6165C35.4394 15.0948 33.3196 15.1276 33.342 14.6918C33.3629 14.2816 35.2697 13.6816 36.9721 14.2983C38.8494 14.9785 39.5677 16.8082 39.6941 17.1479C39.764 17.3354 39.3536 15.9965 39.2196 14.457C39.1907 14.1239 38.9476 10.9926 40.3226 10.3511C40.8128 10.1225 41.5048 10.2121 41.7471 10.5624C42.032 10.9744 41.6405 11.669 41.3881 12.1979C40.9493 13.1176 40.4822 14.4793 40.3661 16.4128C40.5462 16.0098 40.9256 15.3075 41.6678 14.7035C41.8372 14.5656 43.1342 13.5432 44.9428 13.6944C46.0457 13.7867 47.3113 14.313 47.2887 14.7605C47.2717 15.0958 46.5358 15.3144 45.9379 15.492C44.4594 15.9313 43.7443 15.684 42.9867 15.8891C42.2474 16.0892 41.2768 16.7718 40.4607 19.0474Z" fill="#69D7C7"/>
<path fill-rule="evenodd" clip-rule="evenodd" d="M47.3707 80.7763C47.8251 80.28 47.3585 79.0784 46.6398 78.4625C46.1333 78.0285 45.2477 77.6677 44.8536 78.0117C44.469 78.3475 44.7304 79.1994 44.8194 79.4891C44.9166 79.8059 45.0853 80.3559 45.6214 80.7016C46.1513 81.0436 47.0123 81.1678 47.3707 80.7763Z" fill="#3DAE9E"/>
<mask id="mask3_799_12937" style="mask-type:luminance" maskUnits="userSpaceOnUse" x="40" y="79" width="6" height="5">
<path fill-rule="evenodd" clip-rule="evenodd" d="M45.1592 81.8193L43.8216 83.7283L40.7574 81.5812L42.0949 79.6723L45.1592 81.8193Z" fill="white"/>
</mask>
<g mask="url(#mask3_799_12937)">
<path fill-rule="evenodd" clip-rule="evenodd" d="M44.5706 82.6544C44.9008 82.0682 44.1746 81.0033 43.3351 80.566C42.7436 80.2578 41.7994 80.1068 41.4933 80.531C41.1946 80.9451 41.642 81.7157 41.7942 81.9778C41.9606 82.2644 42.2494 82.7618 42.8497 82.9775C43.4432 83.1907 44.3099 83.117 44.5706 82.6544Z" fill="#3DAE9E"/>
</g>
<path fill-rule="evenodd" clip-rule="evenodd" d="M43.1133 84.8784C42.987 84.2174 41.7448 83.8733 40.8214 84.0812C40.1707 84.2279 39.3522 84.7223 39.3925 85.2438C39.4317 85.7528 40.2709 86.0525 40.5564 86.1544C40.8685 86.2658 41.4103 86.4592 42.0078 86.2362C42.5987 86.0157 43.213 85.3998 43.1133 84.8784Z" fill="#3DAE9E"/>
<path fill-rule="evenodd" clip-rule="evenodd" d="M43.173 88.1994C42.8142 87.6301 41.5321 87.763 40.7484 88.2937C40.196 88.6678 39.6144 89.4268 39.8422 89.8977C40.0645 90.3572 40.9552 90.3299 41.2582 90.3206C41.5894 90.3104 42.1644 90.2926 42.6393 89.867C43.1091 89.446 43.4561 88.6484 43.173 88.1994Z" fill="#3DAE9E"/>
<path fill-rule="evenodd" clip-rule="evenodd" d="M68.5133 79.6172C68.4579 80.1845 68.5132 91.8037 61.0105 94.4811C52.7894 95.6759 50.4897 95.4784 48.2776 94.8681C45.121 93.9974 43.6811 92.7109 43.1213 92.1561C42.6822 91.721 40.2691 89.2678 40.5051 85.8188C40.5387 85.3275 40.6409 84.0517 41.4635 82.7368C42.9813 80.3103 45.6826 79.7796 46.3101 79.6767C47.1207 79.5438 47.7788 79.5701 48.1536 79.6172C51.8034 80.0752 55.5048 82.8989 59.9973 85.2131C62.1141 86.3036 64.5133 66.3027 67.0133 67.8036C68.6112 68.7629 68.5707 79.0272 68.5133 79.6172Z" fill="#30BDA9"/>
<path fill-rule="evenodd" clip-rule="evenodd" d="M32.939 26.1631C32.6207 23.1655 31.7674 19.2476 29.5565 15.2065C28.7955 13.8155 27.9768 12.5983 27.1662 11.5438C27.4218 11.25 25.0398 12.6078 25.5045 12.4805C26.8177 14.0264 28.7049 16.6415 29.9459 20.3227C30.73 22.6485 31.041 24.7621 31.1467 26.447L32.939 26.1631Z" fill="#69D7C7"/>
<path fill-rule="evenodd" clip-rule="evenodd" d="M23.025 3.09086C23.9195 2.54376 25.4568 2.58059 26.6758 3.95274L27.0425 4.43932C27.9872 5.9207 28.2309 8.44097 26.7753 12.9308C22.0599 13.0911 19.704 12.1626 18.5404 10.8461L18.1738 10.3595C17.1896 8.8104 17.5791 7.32163 18.3507 6.61321C18.4766 6.49712 18.6001 6.39328 18.7197 6.3031C19.682 5.57796 20.7028 5.97179 21.7057 6.20328C21.7598 5.17528 21.663 4.08518 22.6249 3.36038C22.7445 3.27025 22.8783 3.18021 23.025 3.09086Z" fill="#69D7C7"/>
<path fill-rule="evenodd" clip-rule="evenodd" d="M57.9077 2.26077C56.9773 1.77744 55.4465 1.92141 54.3263 3.37509L53.9945 3.88601C53.1554 5.42953 53.0882 7.96038 54.8533 12.3373C59.5678 12.1683 61.853 11.0778 62.9218 9.68347L63.2536 9.17255C64.1272 7.55875 63.6349 6.10093 62.8158 5.44813C62.6821 5.34112 62.5517 5.24616 62.4261 5.16455C61.4156 4.50837 60.4249 4.9724 59.4407 5.27325C59.3151 4.25164 59.3356 3.15756 58.3256 2.50169C58.2 2.42013 58.0602 2.33966 57.9077 2.26077Z" fill="#69D7C7"/>
<path fill-rule="evenodd" clip-rule="evenodd" d="M54.9611 10.1581C54.2262 11.2665 53.4943 12.5379 52.8322 13.9785C50.7163 18.5826 50.2283 22.9236 50.2028 26.0192L52.0522 26.181C51.9735 24.3835 52.0676 21.9173 52.8007 19.1095C53.7818 15.3506 55.4821 12.6103 56.6842 10.9766" fill="#69D7C7"/>
<path d="M38.5 79H42.5" stroke="black" stroke-linecap="round"/>
</svg>
