<svg width="24" height="24" viewBox="0 0 24 24" fill="none" xmlns="http://www.w3.org/2000/svg">
<g id="icon">
<path id="Vector" d="M13.125 18.8885L19.725 12.2885C19.825 12.1885 19.896 12.0801 19.938 11.9635C19.9793 11.8468 20 11.7218 20 11.5885C20 11.4551 19.9793 11.3301 19.938 11.2135C19.896 11.0968 19.825 10.9885 19.725 10.8885L13.125 4.28846C12.9417 4.10513 12.7127 4.00913 12.438 4.00046C12.1627 3.99246 11.925 4.08846 11.725 4.28846C11.525 4.47179 11.4207 4.70079 11.412 4.97546C11.404 5.25079 11.5 5.48846 11.7 5.68846L16.6 10.5885H5.425C5.14167 10.5885 4.904 10.6841 4.712 10.8755C4.52067 11.0675 4.425 11.3051 4.425 11.5885C4.425 11.8718 4.52067 12.1091 4.712 12.3005C4.904 12.4925 5.14167 12.5885 5.425 12.5885H16.6L11.7 17.4885C11.5167 17.6718 11.4207 17.9051 11.412 18.1885C11.404 18.4718 11.5 18.7051 11.7 18.8885C11.8833 19.0885 12.1167 19.1885 12.4 19.1885C12.6833 19.1885 12.925 19.0885 13.125 18.8885Z" fill="#313131"/>
</g>
</svg>
