<svg width="22" height="22" viewBox="0 0 22 22" fill="none" xmlns="http://www.w3.org/2000/svg">
<path d="M11.02 1.17082C11.1397 0.802296 11.6611 0.802296 11.7808 1.17082L14.0048 8.0154C14.0583 8.18021 14.2119 8.2918 14.3852 8.2918H21.582C21.9695 8.2918 22.1306 8.78764 21.8171 9.0154L15.9948 13.2456C15.8546 13.3474 15.7959 13.528 15.8495 13.6928L18.0734 20.5374C18.1931 20.9059 17.7713 21.2124 17.4579 20.9846L11.6355 16.7544C11.4953 16.6526 11.3055 16.6526 11.1653 16.7544L5.34293 20.9846C5.02944 21.2124 4.60765 20.9059 4.72739 20.5374L6.95133 13.6928C7.00488 13.528 6.94622 13.3474 6.80602 13.2456L0.983672 9.0154C0.670187 8.78764 0.831297 8.2918 1.21879 8.2918H8.41561C8.5889 8.2918 8.74248 8.18021 8.79603 8.0154L11.02 1.17082Z" fill="#69D7C7"/>
</svg>
